<svg xmlns="http://www.w3.org/2000/svg" id="svg194" width="795.968" height="426.98" version="1.1"><style id="style2">svg{overflow:visible}.pj5g557b_cls-8{fill:#1c1c1c}.xbr6hcrw_cls-9{fill:#141414}.b4dm963p_cls-10{fill:#0d0d0d}.fdgap9vd_cls-84,.i5ptds7o_cls-83{fill:none;stroke-linejoin:round}.s3r86lw8_cls-19{fill:#bababa}.fdgap9vd_cls-84{stroke:#37b04a}.fdgap9vd_cls-84,.i5ptds7o_cls-83{stroke-width:2px}.i5ptds7o_cls-83{stroke:#d5dc28}.jdwkily1_cls-23{fill:#a7a9ac}.tmgems64_cls-31{fill:#aeb636}.zcr403gt_cls-32{fill:#d5dc28}.jgp9pm2x_cls-33{fill:#37b04a}.z6y7sygx_cls-34{fill:#2b9446}.f1nbk6yr_cls-35{fill:#080808}.rtd6rwe3_cls-52{fill:#414142}.hqbhqvv6_cls-30{fill:#323031}.gjp2j145_cls-121{fill:#a4833a}.dxj7zn3m_cls-123{fill:#f89b53}.by61yxz0_cls-134{fill:#835d25}.ppc78dak_cls-output-wire{stroke-width:15px}.cbc7sd6k_cls-84,.ub9x18av_cls-83{fill:none}.oy5ztui7_cls-2{fill:#fff}.cbc7sd6k_cls-84,.ub9x18av_cls-83{stroke-linejoin:round}.cbc7sd6k_cls-84{stroke:#37b04a}.cbc7sd6k_cls-84,.ub9x18av_cls-83{stroke-width:2px}.ub9x18av_cls-83{stroke:#d5dc28}.wgped52a_cls-61{fill:#211e1e}.jgs7emi6_cls-62{fill:#5b5a5d}.n51vm859_cls-63{fill:#f2f2f2}</style><path id="path4" d="M478.696 188.585h21V73.533h59.5" style="stroke-width:2px!important;stroke:#d5dc28;fill:none;stroke-linejoin:round"/><path id="path6" d="M478.696 192.275h25V78.003h55.5" style="stroke-width:2px!important;stroke:#37b04a;fill:none;stroke-linejoin:round"/><path id="path8" d="M478.696 252.845h21V398.26h59.5" style="stroke-width:2px!important;stroke:#37b04a;fill:none;stroke-linejoin:round"/><path id="path10" d="M478.696 248.485h25V393.79h55.5" style="stroke-width:2px!important;stroke:#d5dc28;fill:none;stroke-linejoin:round"/><path id="path12" d="M478.696 229.345h42v35.706h38.5" style="stroke-width:15px!important;stroke:#e6282b;fill:none;stroke-linejoin:round"/><path id="path14" d="M478.696 212.085h64.5v22.846h16" style="stroke-width:15px!important;stroke:#231f20;fill:none;stroke-linejoin:round"/><g id="g40" transform="translate(20 133)"><svg id="b1p9rdfc_Layer_1" width="459.696" height="179.26" data-name="Layer 1" version="1.1" viewBox="0 0 459.696 179.26"><path id="htn3zmav_rect19" d="M.785 78.555h40.02v22.44H.785Z" style="fill:#bababa;stroke:#414142;stroke-miterlimit:10"/><path id="onr5l0ou_polygon21" d="M1248.47 506.13v174.22l1.51 2 148-.08.33-177.62-148.33-.03z" class="pj5g557b_cls-8" style="fill:#1c1c1c" transform="translate(-1200.055 -503.765)"/><path id="dapxadfj_polyline23" d="m1237.96 565.26-1.3 1.3v53.58l1.3 1.3 10.58.09v-56.27" class="xbr6hcrw_cls-9" style="fill:#141414" transform="translate(-1200.055 -503.765)"/><path id="bdbzgi4i_polygon25" d="m1398.24 504.65-.33 177.62 14.93-20.65V525.08Z" class="xbr6hcrw_cls-9" style="fill:#141414" transform="translate(-1200.055 -503.765)"/><path id="ader31id_polygon27" d="m1461.23 661.61 4.67-4.47.06-127.33-4.39-4.62-48.73-.11v136.54z" class="b4dm963p_cls-10" style="fill:#0d0d0d" transform="translate(-1200.055 -503.765)"/><path id="xu5dfc34_line29" d="m192.075 62.105-143.66.25" class="pj5g557b_cls-8" style="fill:#1c1c1c"/><path id="hrwimqqg_path31" d="m212.585 63.475.27 49.7 17.41-.44a11.4 11.4 0 0 0 6.94-4.33l3.1-5.35 1.19-4.45v-21.06l-1.67-4.21-3-5.42a8.39 8.39 0 0 0-6.52-4.06z" style="fill:#231f20"/><path id="ergnp3sb_rect33" d="M265.885 70.745h22.67v34.72h-22.67z" class="b4dm963p_cls-10" style="fill:#0d0d0d"/><path id="e6jzctqf_rect35" d="M261.165 71.205h27.46v3.69h-27.46z" class="pj5g557b_cls-8" style="fill:#1c1c1c"/><path id="a7bpvmud_rect37" d="M261.455 86.475h27.46v3.69h-27.46z" class="pj5g557b_cls-8" style="fill:#1c1c1c"/><path id="xab6su9v_rect39" d="M261.195 101.355h27.46v3.69h-27.46z" class="pj5g557b_cls-8" style="fill:#1c1c1c"/><path id="mxghxwm8_path41" d="M36.545 78.525h-1.9m1.9 22.07h-1.9m1.9-20.73h-1.9m0 1.55v-1.55m0 19.2v-1.7m1.9 1.72h-1.9m1.9-6.51h-1.9m0 .31v-.3m0 3.12v-2.8 0m1.9 2.83h-1.9m1.9-12.57h-1.9m0 2.47v-2.47m1.9 3h-1.9m1.9 1.46h-1.9m1.9 3.43h-1.9m25-61.1V.545m217.3 41.19v-.5m-10.09-.18v.5m7.39 28v.09m2.7-12.52v.88m-10.14.24v-.89m7.39-.12v.89m-6.2-.77v.88m-61.31 104.88h1.58m-7.86 8.77h1.57m6.55-9.17h-1.84m-4.61 9h-1.67m6.39-155.27h1.15m-.2-.28h-1m-6.39-7.34h2.37m5 7.29-.32-.33-.52-.51-.37-.33-.12-.08m-3.74-6.19h-2.27m2.27 0-.82-.92-.69-.73-.53-.52-.38-.33-.24-.17m10.49 13.52-3.71-.05m-.11 140.94 3.82-.07m0-7.81h-.59m0-126.28h.59m-.24.23h.15l.09-.21m0 126.25v-.1l-.13-.13h-.09m-6.2-141.76h-3.66m0 158.94h3.69m2.62-142.71h1.84m0 125.48h-1.73m-2.73 8.24h-.6m0-142h.6m-.25.23h.17l.08-.21m0 142v-.1l-.13-.13h-.02m4.44-133.81h-1.58m.11 126h1.47m-1.5 1 .68-.36.82-.67m0-126.1-.14-.13-.69-.56-.53-.29-.18-.05m-6.32-6.43h1.67m0 141h-1.67m1.57-141.12h-1.57m0 141.16h1.57m-1.5 1 .68-.36.82-.67m0-141.24-.13-.12-.69-.56-.53-.3h-.18m6.35 131.4h3.71m8-86-.09.12-.17.1h-.1m-7.61 71.91h-2m8.42-72.2v.2m.49-.22v.05l.06.06v.05h.2m-4.45-.08v.18m-4.93 72.28v.14m2.12-.23v-.12l-.11-.36-.29-.24h-.38m8.4-22.09.21.07.11.12v.06m-1.5-.23v.22m.83-.24h-.26v.07m-4.11 0v-.21 0m-2.84-82.86h-3.82m1.17 21.3 2.65.06m-1 1h.36l.36-.17.23-.33.09-.47m-1.65.71.06.05v.26m-8.59 104.89h3.66m0-16.25h-2m2 0v-.18l-.13-.34v-.07l-.35-.18h-.25m0-.29v.23l-.06.06h-.06m3.84-86h1.67m.07-2.41.06.06v.25m-4.67-29.92h-3.66m7.86 31.87h-1.16m-4 85.87v.24h-.12v0m5.36-86.23-.14-.07-.69-.2h-.09m.6 62.86h-.45m-6-70h2.57m-1.65.72.06.06v.25m.48 0h.36l.36-.18.24-.33.08-.48m-3.45 3.14h1.46m.23-2.48h.06v.25m-.47 2.11h-1.16m1.16 0-.13-.06-.69-.21h-.09m1.71 70.23h-2.18m9.91-62.55h-3.82m.13 29.06 3.69.06m0 6.77-3.69.07m-.13 20.52 3.82.06m-9.89 6 2.06.05m-1.43.54.61-.08.82-.46m10.07-56.86h.23m-.32 50.22h.16v0m-9-60.47h-3.66m.12 33.35h3.54m0 7-3.53.06m-.13 24h3.66m1.3 2.92 1.12-.65m-5.92 55.41-.15.18v0m6.45-9-.15.2v0M198.075.255v44.98m0 0v133m-.47.24V45.115m0 0V.635m22.4 87.47-2.1.49-1.3.72m7.3-.27-.89-.45-2.11-.49m3-12.4-.89-.45-2.56-.51-2.55.51-1.32.73m17.9 12.88-.69-.46-.85-.17-.85.17-.72.49-.15.16m1.52 3.64-.65.17-.72.48-.15.16m3.26-.19-.69-.45-.66-.17m-.39-9.3-.65.17-.72.48-.15.16m3.26-.19-.69-.45-.66-.17m1.35-3.83-.69-.46-.85-.17-.85.17-.72.49-.15.16m36.67-17.12v-4.48m-1.22.07v4.41m-1.21-18.92.07-.05.11-.1.09-.11v-.26m-.27-.46v-17.23m-3.93-3.93v18.48m-.62-.19v-18.55m-1.88 19.67-.06-.07v-.17m.89-19.4v18.53m5.36 3.7.1-.15.08-.16.06-.16v-.29m-4.26-1.85.06-.07.1-.16.08-.16v-.44m-.62-.19v.94m-2-.11v.16l.06.07v0m.74-1.12-.1.23-.11.34-.06.28v.06m5.8 9.87.06.08v.25m-4.07-2.95v.33m-.64-.51v.37m-1.12 0-.11-.2-.1-.13v0m6.53 53h.28m-.9 52.7v-47.48m-3.93-.84v52.31m-.62.26v-52.51m-.49-57.11v109.62m5.67-114v-.14 0m-5.88-2.77v-.16 0m1.94.39v-.14 0m-.53 0v-.16 0m-1.34 6.9v.24m-23.76 61.67v.26m-16.61 3v-.13m.03-49.34v-.17m10 .17v-.16m5.07 47.73h.05v.05m.6-15.62v.93m0-5.39v3.22m0-8v3.51m0-8v3.11m0-5.4v.95m5.94 20.39-.28.14m.41-.55-.2.32-.07.08m.48-2.47h-.11v0m-15.23.13-.23 1m0-9.71.24 1.07m0-5.7-.23 1m0-9.71.25 1.08m4.94 19.6v-.39m0-16.43v-1.09m0 5.54v-2.91m0 7.76v-3.31m0 7.76v-2.77m0 5.59v-1.14m0-16.38v-.46m-196.55-.3v-.76m0 23.58v-.78m0-22H.785m0 22h33.86M.785 79.235h33.86m0 20.51H.785m33.86-19.88v-.91m0 21v-.9m0-19.2H.785m0 19.2h33.86M.785 81.935h33.86m0 14.92H.785m33.86-.35v-.85m0-12.56v-.86M.785 95.655h33.86m0-12.56H.785m0 3.07h33.86m0 6.37H.785m33.86-6.1v-.2m0 1.46H.785m0 3.43h33.86m0 1.48v-.37m0-4.6v-.65m0 4.71v-.63m0-4.89v-.25 0m0 5.14v-3.43m1.9-9.86h-1.9m0 1h1.9m-1.9.27v-.23m1.9.29-1.9-.06m0 2.86 1.9-.08m-1.9.51v-.43m1.9.53-1.9-.1m0 4.2 1.9-.11m-1.9.65v-.54m1.9.66-1.9-.12m0 4.71 1.9-.12m-1.9.66v-.54m1.9.66-1.9-.12m0 4.28 1.9-.09m-1.9.53v-.44m1.9.51-1.9-.07m0 3h1.9m-1.9.31v-.26m1.9.3h-1.9m0 1.13h1.9m155.53-71.39V.535m-131.79 29.44V.535m0 61.57v-32.13m59.9 16.06.46 2 1.3 1.68 1.94 1.13 2.29.39 2.3-.39 1.94-1.13 1.3-1.68.46-2-.46-2-1.3-1.69-1.94-1.12-2.3-.4-2.29.4-1.94 1.12-1.3 1.69zm-59.9-16.06h131.79m-131.79 146.7V62.105m0 114.57h131.79m0 0V62.105m-131.79 0h131.79m-155.53 54.27v-13.4m0 0v-40.18m1.29-1.3v56.18m10.58-86.7V2.235m1.51-1.51v29.36m-1.51 32.72v-31.83m1.51-.9-1.51.9m11.27-1-9.76.1m0 0v32.1m10.36-31.85v-.07l-.08-.11-.13-.08-.18-.06h-.19m0 32.13v-32.16m-11.27 145V62.795m1.51-.62-1.51.62m1.51 113.7-1.51-1.51m11.27-112.88-9.76.07m0 0v114.32m9.76.17-9.76-.17m10.36-114.14v-.05l-.08-.08-.13-.06h-.37m0 114.56V62.105m.6 114v.13l-.08.18-.13.15-.18.09h-.19m211.19-66.3v5.69m0 0v3.19m-4.16-12.9v10.8m0 0v6.1m4.16-88.58v6.48m-4.16-10.48v10.43m-64.55 83v5m0 0v3.87m75.69-90.84v.32m0 27.09v.17l-.05.16-.08.16-.11.13-.13.11-.15.09-.16.05h-.18m.88-.93h-.99m0 .89h-2.7m2.7-.94v.89m-2.7-.84h2.7m-7.72 1h.6m2.67 0h1.75m0-.89v.89m0-.89h-.87m4.45-27.17v12m-.88-12.67h.34l.15.07.13.09.11.11.08.13.05.14v.14m-.88 11.31v-12m0 0-10.09-.15m0 0v12m-.9-11.31v-.03l.06-.14.08-.13.11-.12.14-.09.16-.06h.34m11 12.94v.48m-.88-1.22h.34l.15.07.13.09.11.11.08.13.05.14v.14m-.88-.21v-.53m0 0-10.09-.15m0 0v.6m-.9.14v-.19l.06-.14.08-.13.11-.12.14-.09.16-.06.17-.05h.17m11 3.46h-.88m.88-2.09v2.09m0-2.09v-.13l-.05-.13-.08-.12-.11-.11-.13-.08-.15-.07h-.36m.88.69h-.88m-3.57 14.64v.33l-.08.16-.11.13-.13.11-.15.08-.17.06h-.17m.88-.89h-.88m.88-5v5m-.88.89h-2.67m2.67-.93v.89m-3.58-.85v.35l.09.15.11.14.14.11.16.08.17.05h.17m0-.89v.88m-.91-8.57v-.93m.91 8.61h-.88m8-15.37v.69m-10.09-.77h1.78l7.13.06h1.18m-11 3h.9m0-3.1h-.34l-.16.06-.14.08-.11.11-.08.12-.06.13v.14m0 0h.9m0-.69v.69m5.64 6h.88m-3.55.18h-.88m5.33-3.86h-.13l-.4.14-.4.3-.4.6-.28.84-.14 1.79m1.75-3.68 1.09-.05 1.61-.07m0 0v-2.09m0 0-10.09-.08m0 0v2.41m0 0h1.22m1.75 3.74-.19-2.08-.36-.88-.4-.47-.37-.22-.43-.09m1.75 3.74v8.61m0 0h2.67m0 0v-8.75m.88 3.74v-4.21m8.44-3.85v12.11m-8-10.2v11m7.18 0v-13.7m-151.31-7.5v-.4l-.09-.39-.15-.38-.21-.36-.25-.33-.31-.3-.34-.27-.39-.22m0 0-.41-.18-.44-.12-.45-.08h-.93l-.45.08-.44.12-.41.18m0 0-.39.22-.34.27-.31.3-.26.33-.2.36-.15.38-.09.39v.4m1.77-2.65-1.77.88m3.53-1.76-1.76.88m1.76-3.09-1.54 1-1.14.5-.85.23m7.07 0-1.55-.51-1.14-.64-.85-.62m0 2.21v-2.21m1.77 3.09-1.77-.88m3.54 1.76-1.77-.88m-5.3-1.32v3.53m7.07 0v-3.52m-7.07 3.53 1.55 1 1.14.5.84.23m0 0 1.55-.51 1.14-.64.85-.62m-3.54-5.3h-.53l-.52.09-.51.15-.48.2-.44.26-.4.3-.35.35-.3.39m7.07 0-.3-.39-.35-.35-.4-.3-.45-.26-.47-.2-.51-.15-.52-.09h-.54m3.54 5.3.23-.42.18-.43.1-.46v-.92l-.1-.45-.18-.44-.23-.41m-3.54 5.3h.54l.52-.09.51-.15.47-.21.45-.25.4-.31.35-.35.3-.38m-7.07 0 .3.38.35.35.4.31.44.25.48.21.51.15.52.09h.53m-3.53-5.3-.24.41-.17.44-.1.45v.92l.1.46.17.43.24.42m3.53 3.19 2.2-.37 1.86-1.08 1.24-1.61.43-1.9-.43-1.9-1.24-1.61-1.86-1.07-2.2-.38-2.19.38-1.86 1.07-1.24 1.61-.44 1.9.44 1.9 1.24 1.61 1.86 1.08zm82.18 112.15.26-.37m-6.55 9.17.1-.15m6.45-9 .09.07.09.06.08.06h.13v0m-.47-.35.76-.85.54-.59.36-.42.23-.28.09-.12m-8.43 11.28.1.07.08.06.09.06h.07l.06.05v0m-.47-.35.77-.85.54-.6.36-.41.24-.28.08-.11m4.2-6.4.09.06.09.07.08.06h.13v0m-2.52 1.84.14-.13v0l.35-.37.68-.74.82-.9m-6.29 8.8.09.06.09.07.08.06.07.05h.06v0m-2.51 1.84.15-.14v0l.35-.37.68-.74.82-.9m6-155.38-.2-.28m-5-7.29-.1-.15m5.74 7.14v.21l-.08.09-.09.08-.1.08-.1.07m2.56 3.13-.11-.22-.29-.41-.5-.62-.82-.94-.83-.9m-4.7-7.78h-.31l-.08.05h-.08m1.29 1.72v-.05l-.13-.24v-.07l-.35-.47-.74-.89m5.45 6.73v.13l-.06.08-.07.08-.09.09-.09.07-.11.07m-4.6-7.64h-.06v0h-.28l-.08.05m7.83 151.67h.38v0-.05m-.47-140.58h.38v.05m-.47 6.52v-6.76m0 140.82v-7.81m-3.58 14.4.08-.14v-.47l-.05-.08m0-151.52.08.14v.16m2.18 11.06v.08m1.51.91h.38v0m-2 126.95v.07m1.53-1h.38v0m-6.91 17.06h.43v-.05m-.47.25v-9m0-149.86h.43v.05m-.47 7.62v-7.87m4.2 141.77.26-.31m0-125.48-.26-.31m.73-.28v.21l-.06.08-.07.09-.08.07-.09.08-.09.06m-8.12 148.22.07-.14v-.32l-.05-.15v-.08m10.1-144.53v-.15l-.13-.43v-.12l-.37-.63-.59-.79-.82-.88m-8.01-21.34.07.15v.31l-.05.15v.08m8.12 146.37.09.06.09.07.08.08.07.08.06.08v.22m-.47-.59.76-.81.54-.69.36-.58.23-.51.09-.41m-8-131.73v.05m1.52.91h.43v.05m-.46 141.69h.38l.05-.05v0m3.73-7.72.09.06.09.08.08.07.07.09.06.08v.36m0-127.29v.22l-.06.08-.07.08-.08.08-.09.07-.09.07m-5.84-9.06v.07m0 144.07v.08m-.35-142.61-.1-.12m0 141.24.1-.13m.47-141.58v.22l-.06.08-.07.08-.09.08-.08.07-.1.06m2 3v-.16l-.13-.43-.06-.12-.36-.63-.6-.79-.82-.88m0 141 .1.06.08.08.09.08.07.08.06.08v.21m-.47-.59.77-.81.54-.69.36-.58.24-.51.08-.41m-2.09 3.13.09.06.09.07.08.08.07.08.06.08v.22m0-142.42v.21l-.06.08-.07.09-.08.07-.09.08-.09.06m8.53 130.36h.38v0m-.47.21v-14.1m0-.01h.38v0m7.72-22.4v-.86m-8.19-82.18h.38v.05m-.47 21.13v-21.33m-2.28 105.9v.14m-1.49 3.36.08-.09v-.1 0m13.39-65.8v.31l-.06.08-.08.08-.09.06h-.21m.53 29v-.31l-.06-.08-.08-.08-.09-.06h-.21m-2.73-15.18.15.21.11.23.06.25v.52l-.06.25-.11.23-.15.21m-4.16-26.17v.33l.08.09.08.07.1.06h.23m4.77.09h.32l.09.07.07.09.06.11v.22m-.58-.59v.37m-4.76-.46 4.77.09m-5.31-.48.1.17.15.12.19.08h.09v0m0 0-.15.07-.1.11v.15m-2.25-12.33h.38v0m-6.91 105.76h.43v0m13.59-82.37.16-.13.18-.12.19-.1.19-.09.19-.07.21-.06.2-.05h.21m-15.59 83.23v-16.41m8.7-27.53v-.33l.08-.09.08-.07.1-.06h.23m-9.28 28.12h.43v0m13.58-28h.22l.1-.05.09-.08.07-.08.06-.11v-.22m-.58.54-4.77.09m4.76-.48v.39m-11.4-87.59.08.12v.18m7.62 73.93v3m-5.88-48.12-.26-.18m9.86 47.73.16.12.18.12.19.1.19.09.19.07.21.06h.41m-4.63-2.66v1.02l.06.45.07.39.1.31.11.24.12.15h.12m-2.45 10.65.1-.17.15-.12.19-.08h.1m-.28-.35v.13l.1.11.15.08m2.76-36.87.09-.4.13-.38.15-.32.18-.28.2-.23.21-.17.23-.1h.23m-3.07 2.94v-2.92m-1.1 25.36v3m0-28.31v2.92m6.25-7.29h.23l.1.06.09.07.07.09v.33m-.6-.17v-.42 0m-.31 0h.31m-10.6-16.11v.32l-.06.09-.07.09-.08.08-.09.06h-.09m2 2.93v-.23l-.13-.57v-.15l-.37-.67-.59-.71-.82-.6m10.75 15.84v-.41 0m0 0h-.2l-.16-.09-.13-.14-.08-.18v-.14m0-4.82v4.82m-.59-.18h.55v0m-.59-5h.55v0m1.49 6v1m-.6-1.2h.5v0m0 35.88v.33l-.07.09-.09.07-.1.06h-.23m0 0h-.31m.31 0v-.44m-11.21-54.51h.22m4.75 22.2h-.23l-.1.06-.08.07-.08.09v.32m.58-2.16h-.2l-.17.05-.12.07m6.75 1.34h.23l.1-.06.09-.07.07-.09v-.21.56m0-2.07v2m-.6-2.17h.5v0m-.59 2.67h-2.07m2.07 0v-2.84m-6.52.12.08.64.2.57m0 0v1.58m0 0h1.1m0 0h3.08m1.17 33.35v-.21l.1-.18.16-.13.18-.07h.11m0-.45v.44m-1.16-32.12-1.13 1.09-.32.4m1.45-1.49h-.07l-.25.14-1.15.73-.53.37m0 0-1.18.74-.47.28m2.47 10.32-.06.05-.1.09-.14.12-.17.14-.19.17-.21.18-.22.18m4.37 17.94h-.5m.6-1.25v1.1m-7.12-34.9 6.52-.12m0 0v-1m0 0h-.31m-1.17-1.19v.29l.16.36.26.29.34.18.38.07m-1.17-1.19v-4.86m0 0-5-.09m7.12 39.1v-.33l-.07-.09-.09-.07-.1-.06h-.23m.59 2.6h-.5m.6-2.13v2m-5.77-5.65.61.38m0 0 .52.35 1.12.75.93.6.43.26h.07v0m-1.39-1.41.26.31 1.13 1.1m-2.49-13.14.22.18.21.18.19.17.17.14.14.12.1.09h.06v0m-3.6 13.28h-.23l-.1-.06-.08-.07-.08-.09v-.33m6.82 3.43v-2.73m-3.93-.06 3.93.06m-3.93-.06h-1.26m0 0h-1.06m0 0v1.51m-.76-32.68h.44m0-7.3v7.3m-.48-7.4h.39m.28 39.91h-.2l-.17-.06-.12-.07m.5.18-.2.57-.08.64m-9-82.84h.43v.05m-.47 24.26v-24.3m14.71 85.14v4.81m-.59.2h.55v0m-.59-4.66h.55v0m-9.93-53.98v.32l-.06.09-.07.09-.08.08-.09.06-.09.05m11 52.23h.31m0 0v-1.12m0 0-6.52-.11m0 7.37 5-.08m0 0v-4.86m1.17-1.2h-.21l-.37.15-.31.26-.21.36-.07.41m-10.16 9.17.65-.17.7-.44.53-.54.37-.56.23-.6.08-.61m2.56-8.68h-.48m.48 7.32h-.39v0m.48-7.46v7.37m-5.12 4.23h.2l.09.07.08.09v.36-.02m-.67-.68h.2m6.51-39.73h-1.06m0 22.42h1.07m0 0-.69-1.86-.32-2 .06-2 .43-1.94.79-1.82 1.13-1.63m0 0-1.14-1.65-.79-1.83-.43-2v-2l.34-2 .71-1.87m-10.39-30.24h.43v0m3 69.86h.26m5.6-39.75h-.58m.58 22.42h-.58m.58-22.42v22.72m-12.94-81.78.07.12v.13m1.56 31.93-.1-.07m5.77 67h.2l.09.07.07.1.06.1v.37m-.71-.74h.23m-5.2-67.56v.31l-.06.1-.07.09-.09.08-.08.06h-.1m2 2.94v-.23l-.13-.57-.06-.15-.36-.68-.6-.7-.82-.61m6.45 38.59.76-.15.54-.34.36-.44.23-.54.09-.62m-8.42-39h.22m6.22 41.07h.26l.07.07.06.09v.33m-.73-.6h.26m0 2.6h-.26m.73-.59v.32l-.06.09-.07.07-.08.06h-.18m2 2.08v-.25l-.13-.56v-.13l-.37-.54-.59-.43-.82-.17m-5.85 28.82.1-.1m-.33-70.66v.31l-.06.1-.07.09-.08.08-.09.06h-.09m.8 70h.08l.08.05.08.07.06.07.06.08v.24m-.47-.56.07-.06.53-.55.37-.57.23-.6.09-.62m4.67-26.91v.33l-.06.09-.07.07-.08.05h-.18m2.24-4.69h.47m-.47-29.17h.38v0m-2.84 31.66h.18l.08.06.07.07.06.09v.32m1.77-2.67v-29.06m0 56.57h.38v0m-.47-20.56h.47m-.47 20.66v-20.75m-7.83 26.74h.08l.08.05.08.07.06.07.06.08v.24m-1.7 17.21 2-.33 3-2 2.25-2.46 1.94-3.06 1-2.37.52-2.26v-2.22l-.62-1.72-1.28-1.25-2.59-.39-1.6.49m-3.94-31.72.77-.16.54-.34.36-.44.24-.54.08-.62m-2 2.1h.18l.09.06.07.07.06.09v.33m-.57-.6h.1m0 2.82h-.1m.57-.59v.33l-.06.08-.07.08-.09.05h-.18m2 2.09v-.26l-.13-.55-.06-.14-.36-.53-.6-.44-.82-.17m.37-.59v.33l-.06.09-.07.07-.08.05h-.18m0-2.83h.18l.08.06.07.07.06.09v.33m1.62-2.69h.47m-.47-33.45h.43v0m-.47 33.32v-33.07m0 64.57h.43v0m-.47-24h.47m-.47 24.13v-24.25m8.7-29.94v-.23m0-41.55v41.55m0 50.41v44.58m0-44.58v-.21 0m0 0-.05-.07-.1-.23v-.3m0 0v-7.41m0 0 .08-.8.1-.4.08-.24m0 0v-.24 0m0-30.4v30.21m0-30.4v-.31 0m0 0-.08-.25-.1-.39-.08-.81m0 0v-7.33m0 0v-.29l.1-.22.05-.06m-4.54-47.42.19.26m0 0 .83 1.13.81 1.19.51.78.29.52.12.29v0m0 0v6.74m0 0-.08.27h-.24l-.37-.17-.53-.43-.76-.83m0 0-.26-.32m0 0-.82-1.12-.68-1.19-.35-.78-.18-.65v-.17m0 0v-7.26m0 0h.08l.24.2.37.42.52.66.33.42m-5.08-7.08.1.14m0 0 .63 1 .11.17.35.59.19.4v.07m0 0v7.84m0 0-.09.27h-.23l-.36-.17-.54-.44-.77-.83m0 0-.1-.13m0 0-.82-1.12-.68-1.18-.35-.79-.18-.64v-.17m0 0v-8.41m0 0h.08l.24.21.37.42.54.67.69.93.82 1.17m9.45 12.46-.48-.6-1-1.18-1.88-2.41-2.19-2.94-2.71-3.79-2.66-3.89-1.62-2.46-.73-1.59-.08-.13m0 0-.21-.34m10 24.22.26.32m0 0 .82 1.11.59 1 .36.8.2.69v.2m0 0v21.26m0 0-.08.61-.24.41-.37.23h-.53l-.76-.36m0 0-.26-.19m0 0-.82-.8-.68-1.1-.35-.9-.18-.91v-.28m0 0v-23m0 0 .08-.35.24-.11.37.11.53.38.69.71.14.16m-6.29-7.56.1.12m0 0 .83 1.11.59 1 .36.8.2.7v.2m0 0v24.4m0 0-.09.6-.23.42-.36.23h-.54l-.77-.37m0 0-.1-.08m0 0-.82-.8-.68-1.1-.35-.89-.18-.91v-.28m0 0v-26.1m0 0 .08-.35.24-.11.37.12.53.38.69.71.13.16m0 30.57.1.07m0 0 .83.77.59.9.36.85.2.91v.31m0 0v33.33m0 0-.09.79-.23.68-.36.57-.54.44-.77.2m0 0h-.1m0 0-.82-.27-.68-.72-.35-.76-.18-.93v-.32m0 0v-35.62m0 0 .08-.68.24-.49.37-.3.53-.07.69.25.13.09m6.29 4.3.26.18m0 0 .82.77.59.9.36.86.2.91v.3m0 0v29.07m0 0-.08.78-.24.68-.37.57-.53.44-.76.19m0 0h-.26m0 0-.82-.26-.68-.72-.35-.76-.18-.93v-.33m0 0v-31.4m0 0 .08-.68.24-.5.37-.31.53-.07.69.25.14.09m-6.29 37.16h.1m0 0 .83.23.59.55.36.68.2.88v.33m0 0v24m0 0-.09.78-.23.77-.37.73-.53.7-.07.06m0 0-.1.1m0 0-.82.6-.77.12-.67-.35-.32-.55-.15-.78v-.21m0 0v-25.7m0 0 .08-.83.24-.74.37-.64.53-.51.69-.26h.13m6.29-.11h.26m0 0 .82.22.59.55.36.69.2.88v.32m0 0v20.57m0 0-.08.78-.24.77-.36.72-.53.68-.7.56-.65.22m0 0h-.19m0 0-.77-.12-.44-.44-.28-.73-.05-.6m0 0v-22.05m0 0 .08-.84.24-.75.37-.64.53-.51.69-.26h.14m-2.25 29.18 1.6-.53 2.59.43 1.29 1.35.61 1.84v2.37l-.52 2.42-1 2.53-1.93 3.26-2.25 2.62-3 2.15-2.56.44-1.47-.85-.93-2-.2-2.49.35-2.63.8-2.71 1.28-2.75 1.8-2.63 2.35-2.19v0m-2.22 19.71h.1m0 0 .63-.13h.11l.35.24.19.51v.23m0 0v16.2m0 0-.09.52-.23.64-.36.74-.54.87-.77 1m0 0-.1.13m0 0-.82.86-.68.46h-.35l-.18-.27v-.16m0 0v-17.28m0 0 .08-.72.24-.78.37-.82.54-.86.69-.79.82-.58m-.7 21.78.1-.12m0 0 .83-.89.59-.45.36-.11.2.18v.13m0 0v8.94m0 0-.09.15-.23.34-.36.53-.54.75-.77 1.08m0 0-.1.14m0 0-.82 1.14-.68.95-.35.47v0m-.16.18v-9.54m0 0 .08-.49.24-.64.37-.76.53-.89.69-1 .13-.17m5.78-25.87.19-.24m0 0 .83-.79.81-.4h.51l.29.3.12.47v.15m0 0v13.83m0 0-.08.52-.24.65-.37.73-.53.88-.76 1m0 0-.26.31m0 0-.82.86-.68.46h-.35l-.18-.27v-.16m0 0v-14.68m0 0 .08-.71.24-.77.37-.81.52-.85.33-.4m.51 18.2.26-.32m0 0 .82-.89.59-.45.36-.11.2.18v.13m0 0v7.75m0 0-.08.15-.24.35-.37.52-.53.75-.76 1.08m0 0-.26.36m0 0-.82 1.15-.68.94-.35.47v0m-.17.2v-8.41m0 0 .08-.49.24-.64.37-.75.53-.89.69-1 .14-.17m-16.75 24.68V45.065m0 0V.535m28.56 100.93 2.56-.51 2.17-1.45 1.44-2.16.51-2.56-.51-2.56-1.44-2.16-2.17-1.45-2.56-.51-2.55.51-2.17 1.45-1.45 2.16-.5 2.56.5 2.56 1.45 2.16 2.17 1.45zm0-13.35 2.56-.5 2.17-1.45 1.44-2.17.51-2.55-.51-2.56-1.44-2.17-2.17-1.45-2.56-.5-2.55.5-2.17 1.45-1.45 2.17-.5 2.56.5 2.55 1.45 2.17 2.17 1.45zm12.49 4.59.85-.17.72-.48.48-.72.17-.85-.17-.86-.48-.72-.72-.48-.85-.17-.85.17-.72.48-.49.72-.17.86.17.85.49.72.72.48zm0 4.46.85-.17.72-.49.48-.72.17-.85-.17-.85-.48-.73-.72-.48-.85-.17-.85.17-.72.48-.49.73-.17.85.17.85.49.72.72.49zm0-9.31.85-.16.72-.49.48-.72.17-.85-.17-.85-.48-.72-.72-.49-.85-.17-.85.17-.72.49-.49.72-.17.85.17.85.49.72.72.49zm0-4.45.85-.17.72-.48.48-.72.17-.85-.17-.85-.48-.73-.72-.48-.85-.17-.85.17-.72.48-.49.73-.17.85.17.85.49.72.72.48zm7.6-8.93h.08m-.11-.07h.09m48.79 8.64h-.74m.74 0h-.74m-19-12.23h-.34l-.15-.08-.08-.07m.57.23h-.34l-.15-.08-.08-.07m20.32 23.57h-.74m.74-11.08h-.74m-19-12.26h-.34l-.15-.08-.13-.11-.11-.13-.08-.16v-.33m0-7.29v7.29m0-7.29h-.87m.87-.63v.63m0-2.09v.46m-.87 8.88v-7.49m0 0h-1.22m3 8.18h-.34l-.15-.08-.13-.11-.11-.13-.08-.16v-.33m0 0h-.87m0 .89v-.88m-1.22 0h1.22m-1.22.87v-.88m0 0h-1.13m.87-7.23v7.23m0-7.23h-.87m23.59 20.44h-.74m-22.85-57.08v17.1m0 0v1m-.27-1.52h.06l.06.05v.47m-4.2-3.12 1.26.86 2.67 1.82m-4.55-2.87h.56l.06.05m-1.74-.21h1.12m-2 .83v-.18l.08-.16.18-.2.3-.2.29-.11v0m29.53 45.77v8.47m0 0h-.74m0 5.19v2.85m0-28.2v2.95m-22 24.09v-1.44m21.11.33v1.48m0-25v-1.48m-21.11 1.82v-1.34m22.72 7.92h-.74m-21.98-12.31h-.34l-.15-.08-.13-.11-.11-.14-.08-.15v-.34m23.59 15.75h-.74m.74-2.51v2.51m0-2.51h-.74m0-11.09v-.34l-.09-.15-.1-.13-.14-.11-.15-.09-.16-.05h-.17m-22-19.74v18.48m0-18.48v-.33 0-.05 0h-.12m23.12 21v-.34l-.09-.15-.1-.13-.14-.11-.15-.08-.16-.06h-.17m-22-1.26v.34l.08.15.11.14.13.11.15.08h.34m-.87-.89-.06.1-.16.07v0m23.12 2v1.91m-1.08.73h.17l.16-.06.15-.08.14-.11.1-.13.09-.16v-.33m-22.66 32.36v46.75m22-51.7h.17l.16.06.15.08.14.11.1.14.09.15v.33m-22.81-26.13v-.34l.08-.15.11-.14.13-.11.15-.08h.34m21.19 29.77h.33l.15-.09.14-.11.1-.13.09-.15v-.34m0-13.59v8.62m-.87.58h.33l.15-.06.14-.07.1-.09.09-.1v-.22m0-22.4v8.73m-.87-9.31h.33l.15.06.14.07.1.09.09.1v.22m-22 22.65 10.64.17 10.47.16m0 0v-9.18m.87 11.55v1.91m-.42-1.66h.07v0m-.87-.89h.17l.16.06.15.08.14.11.1.14.09.15v.33m-22 3.17h-.52m-.35.88v-.34l.08-.15.11-.14.13-.11.15-.08.17-.05h.17m-1.14.73.18.06.08.07v0m.87-5.32h-.17l-.17-.06-.15-.08-.13-.11-.11-.14-.08-.15v-.34m22-14.6v-9.18m0 0-10.47.16-10.64.18m21.77-4.78v-.14l-.05-.14-.06-.13-.09-.11-.09-.09-.11-.06h-.23m.87 19.42v-1.17m-.87 1.3h.81v0m0-3.89v-1m0 0h-.33.11m0 .76h.17l.16.05.15.08.14.11.1.14.09.15v.34m-22.85-11v.21l.08.09.11.09.13.07.15.05h.34m0 0v7.22m20.44-12v-.28l-.07-.13-.08-.11-.1-.09-.11-.06h-.23m-19.78 12.75h-.34l-.28-.05-.19-.07-.06-.07m.87.2.08.45.24.37m-.32-9.49h-.52m-.35.89v-.34l.08-.15.11-.14.13-.11.15-.08h.34m-.87 24.89v-.21l.08-.09.11-.09.13-.07h.49m0-8.49v8.49m-.87-8.35h.81m0-.75 21.11-.37m-21.11 1.12v-.74 0m21.11.39h-1.78l-7.12.12-12.21.21m21.11-1.12v.76m-22 .5v-.34l.08-.15.11-.13.13-.11.15-.09h.34m21.77-16.5v-1.93m0 0h-1.33m.67 3h-1.33m1.33 0h.14l.14-.06.13-.1.1-.13.09-.16.05-.18v-.37m-1.33 0h1.33m-.34 11.41v-.76m-19.51-.33h.18l7.12.12 12.21.21m0 19.55h-1.33m2-.78v.15l-.05.15-.07.13-.08.11-.1.09-.11.07h-.23m0-18.79h.17l.16.05.15.08.14.11.1.14.09.15v.34m-1.54-15.29v2m-.6-2.05h.55v0m-.66 3h.14l.14-.07.13-.09.11-.14.08-.15v-.56m-.6-.07h.55v0m.67 16.11h.33l.15-.08.14-.11.1-.14.09-.15v-.34m-.21 0h.21m0-1.9v1.9m-.21-1.92h.21m-22 13.84h-.17l-.17-.06-.15-.08-.13-.11-.11-.14-.08-.15v-.34m2.47-14.18v-.75m-1.28-.47.24.2.3.15.74.12m-1.4.72v-1.19m0 0h-.84l-.3-.06v0m20.65 20.53h.23l.11-.07.1-.09.08-.11.07-.13v-.3m-21.58-4.32h.21l.06.05m0-8.9v8.9m-.27-15.07.14-.13.09-.1v0-.21m0-8.44v8.44m-.27-8.3.18-.06.08-.06v0m21.31 28.21h1.33m0 0v-1.92m0 0h-1.33m.67-1h.14l.14.06.12.09.11.13.08.15.05.18v.37m-20.55-31.53h1.75m-1.75 0h-1.22m-.52 0h.52m19.78.35h1.75m0 0h-1.33m0 0-12.19-.21-4.62-.08m-3.49-.06h-2.59m2-.65v.27l.07.12.07.11.09.08.1.06h.21m20.36 33.6h.55v0m0-2v2m-.6-1.91h.55v0m0 0v-.54l-.08-.15-.11-.13-.12-.1-.14-.06h-.14m-19.78-11h-.52m-.35.88v-.34l.08-.15.11-.13.13-.11.15-.09h.34m-1.14.89h.27m-1.27-16h1.62m-.62 1v-.56l.08-.15.09-.13.12-.1.12-.06h.14m-2.51 30.26h2.51m-.62.72v-.28l.06-.13.08-.1.09-.09.09-.07h.22m-.62-20.4.22.33.31.27.38.2.43.06m21.2-.03h.13l.12.05.11.08.1.11.09.13.06.15v.33m-.66 2.81h-1.33m2-.92v.43l-.07.15-.08.14-.1.11-.11.08h-.26m.66-.89v-1.92m0 0h-1.33m0 2h1.33m-22.91-38-1.25-.83-2.68-1.76m1.34 21.58h2.59m0 0v-19.06m21 20.75v-.64 0m-22.89-.4 10.7.19 12.19.21m-23.51-1.11h-.24l-.65.19-.35.33-.16.3m.49.51v-.21l.17-.17.37-.16.68-.09h.19m-.62-.71v.28l.06.12.08.11.09.08.09.07h.22m22.89 30.61h1.45m0 0-10.47-.18-10.64-.19m-.24 0h.24m-.52 0h-1.71m1.09-1v.54l.07.15.1.13.11.09.13.07h.13m-4.55-52.55v22.41m-.62-22.57h.62m25.51 38.66v-.33l-.06-.15-.08-.13-.1-.1-.12-.09h-.25m.66.87v2m-.6-2h.6m-.66 2.87h.13l.13-.05.11-.09.1-.11.09-.14.06-.15v-.34m-.6 0h.6m-25.51-18.22v.44m-.59-.51h.62m24.91 2.91v-2m0 0h-1.77l-7.1-.12-15.55-.27m24.36 3.5v-1.08m-24.42.43h1.77l7.09-.12 15.56-.28m-.06 1.1-12.23.21-9.69.17m21.92 29.83v-.68m-.06.69-12.19.22-10.62.18m-1.89-34.05h.52m0 0v2.83m3.44 32h-2.5m-1.43-.89v.06l.21.36.37.29.82.18m0 0v-.28l.06-.13.08-.11.09-.09.1-.06h.21m0 0-.85-.09-.38-.14-.23-.18-.06-.11v-.14m-.52-33.52v2.85m-.59-2.91h.59m0 34h-.62m.59-.51v.45m0-31.17h.52m1.82 2.07v-.55l.07-.16.1-.13.11-.09.13-.06h.14m0 0-1.06-.1-.69-.22-.39-.23-.21-.21-.07-.13v-.16m-.52 0v.47m-.62-.52h.59m24.94 30.24v-2m-24.42 2.41h1.77l7.1-.13 15.55-.27m-.06-18.15h1.33m0 0-19.51-.34m0 0h-1.4m0 0h-1.35m0 0h-1.52m.91-.82v.33l.13.27.2.18.23.07m-1.44 4.49h2.07m-.62.88v-.34l.06-.15.08-.13.09-.11.1-.08h.24m20.36 12.08v-1.04 0m-22-.38 9.78.17 12.23.21m.06 1.06h-1.77l-7.09-.13-15.56-.27m-.52 2.89h.52m0-2.84v2.84m-.52.05h-.59m.59-2.9v2.85m0-2.85h.52m0 0v-.22l.16-.2.34-.23.63-.24 1-.12h.18m-.62-1v.37l.05.16.07.16.1.12.11.1.13.06h.13m-3.46 1.09h.59m0-.47v.47m24.94-12.94v-2m0 0v-.87 0m-22.45-.39 10.25.18 12.2.21m.06.86h-1.77l-7.1-.13-15.55-.27m24.36 3.31v-.88m-24.42.43h1.77l7.1-.13 15.55-.27m-.06.9-12.21.21-10.16.18m-2-3.7v2.84m-.52-2.85h.52m0 0v-.13l.05-.09.16-.18.36-.21.65-.17h.68m-.62-.84v.32l.06.15.08.12.09.11.1.08.12.05h.12m-.09-9.58-1-.22-.66-.45-.39-.46-.21-.43v-.09m0 11.57.15-.34.35-.41.63-.34.65-.09m0 0h1.53m0 0h.62m0 0v-8.87m0 0h-1.62m-2.31-1.65v11.57m-.62-11.62h.62m0 11.57v.47m-.59-.48h.62m0 15.36.15-.36.34-.47.61-.47 1-.27h.17m0 0h1.71m0 0v-8.79m0 0h-2.06m-1.9-1.73h.52m1.38 1.73-1-.21-.49-.36v-.29l-.12-.28m1.87 1.26v-.48l.08-.13.09-.11.11-.08.11-.06h.12m0 0-1-.1-.51-.18-.3-.2-.1-.13-.05-.07v-.18m-1.11 12.08h.62m0-11.57v11.57m0-14.89v2.85m-.59-2.86h.59m-.59 3.32h.62m0-.47v.47m-.62-.47h.59m-.59-41.22h-1.12m1.12 57.07v-.46m0 0v-2.86m0 0v-.47m0 0v-11.64m0 0v-.47m0 0v-2.86m0 0v-.47m0 0v-11.61m0 0v-.47m0 0v-2.83m0 0v-.45m0 0v-22.55m-1.12 0h-.6l-.17.09-.08.1v.14m-44.82 64.28h-.59m15.75 0h-15.16m-1.48.89v-.2l.07-.2.1-.16.17-.17.28-.13h.25m15.75 0 2.82-.46 2.49-1.3 2-2 .4-.65m0 0 1-1.77 1-1.78 1-1.8m0 0 1-2.83.15-1.62m17.66-77.29v68.27m0 0v68.27m-46.3-136.54v41.09m0 51.35v44.1m0-95.45v.31l.17.28.26.2.28.09h.13m0 0h15.75m0 0 2.8.45 2.47 1.27 2 2 .44.7m0 0 1 1.77 1 1.78 1 1.8m0 0 1 2.85.15 1.6m0 0v21.06m0 0-.51 3-.68 1.48m0 0-1 1.8-1 1.78-1 1.77m0 0-1.93 2.32-2.63 1.56-3.15.58m0 0h-15.54m0 0h-.28l-.26.13-.19.2-.13.27v.25m53.06-63.68v1.3m0-7v5.75m0-5.75v-.21l-.15-.18-.07-.05m-.32 6.63h.33l.09-.05.07-.07v-.24m-.27-.4.18.15.08.18v.07m-.27-.4v-5.79m0 0-.83-.58-3.18-2.16m3.69 9.37v-.07l-.05-.05m-4.23-9.42h-1.33m0 0v5.95m-.6-5.53v-.46l.08-.06.09-.05h.33m1.33 5.95v-5.92m.62.19v5.89m0-5.89-.24-.13h-.38m4.23 9.42.08-.06.07-.08.07-.08.06-.1v-.38m-4-2.64.84.55 3.17 2.09m-.4.7-4-2.64m-1.54-.86h1.33m0 .81h-1.33m-.6-.44v.24l.08.07.09.06h.33m0 0v-.81m-.6.37v-.21l.08-.06h.42m1.54.86.08-.06.07-.07.07-.09.07-.1v-.38m-.62-.16h.3l.26.09h.06m-.62.65v-.81m.21.86h-.19m-26.42 48.84v.23l-.06.1-.07.09-.09.07-.1.06h-.22m0 0h-.58m-.39 0h-1.51m1.9 0h-.38m.12 0h.85m-2.57 0h1.55m-14.29-33.8v.62m11.48 48.75h-.92m0 0 1.36-.11 1-.3m3.2-1.62.23-.18.19-.17m-2.57 1.67 1.63-.91m6.59-10.08h-.26m-6.72-3.89h.22l.1-.06.09-.07.07-.09.06-.1v-.23m.75 13.54v.27m-.75-26.31v-1.23m0 6.08v-1.73m0 6.08v-1.23m.92 18.11 1.48-1.9m-1.81-11.76h-.59m-.58.6h.22l.1-.06.09-.07.07-.09.06-.1v-.23m0-17v-.23l-.06-.1-.07-.09-.09-.07-.1-.06h-.22m1.17.62h-.59m.59 17h1.06m-1.06.62v-.59m1.06.58v-.59m0 0v-17.1m.58 16.93h-.58m.58-16.93h-.58m-1.06-.62h1.06m0 .6v-.59 0m-1.06.58v-.59 0m1.06.62h-1.06m-15.87-16.09h-.23l-.1.06-.09.07-.08.09v.33m10.6-.59h-10m22.25 37.48-.14.15m-21.49-37.58h-.23l-.1.06-.09.07-.08.09v.33m.6-.59h10m-10 .37v-.35 0m10 49.27h-10m-.6-.59v.3l.08.09.09.07.1.06h.23m0 0v-.39m17.68-44.42-1.86-2.25m-16.42 2.84v-4.45m.6-.22h-.5v0m.6 4.26h-.5v0m0 0v.32l.07.09.09.08h.33m0-.78v.78m10.7.18-10.7-.18m0 38.01h-.23l-.1.05-.09.08-.07.09v.32m11.29-.78-3 .05-7.73.14m10-43.64 3.13.56 2.65 1.57 1.94 2.32m-7.72-4.08v-.35 0m.74 5v1.36m.59.6v-.15l-.08-.18-.13-.14-.17-.09h-.19m9.78 3.96-1-1.8-1-1.78-1-1.77m-18.28 44.23h.5m-.6-.19v-4.45m.59-.59h-.23l-.1.05-.09.08-.07.09v.32m0 0h.5m0-.75v.75m0-.75 10.7-.19m-.73 5.82v-.39m7.72-4.05-.37.58-2 2.09-2.51 1.32-2.84.46m.73-5.82v.75m.58-1.34v.2l-.1.18-.16.13-.19.07h-.1m7-39h-.49m.52-.11 1 1.77 1 1.79 1 1.79m0 29.66-1 1.8-1 1.79-1 1.77m4.28-30.56-.14-1.6-.2-.84m0 0-.25-.75m0 0-.6-1.27m-9.49 24.52v-.33l.08-.09.08-.07.1-.06h.23m1.83 0h-1.83m2.84-.05h-.84m3.07-.09h-1.06m-1.17 0h1.17m-4-27.44h-.55v0m0 8.42v-8.42m.59 8.32h-.55v0m.58.59h-.23l-.1-.06-.08-.07-.08-.09v-.33m.59-.1v.68m5.07.09-5.07-.09m5.08-.6v.68m0 0h.19l.17.1.13.14.08.19v.13m3.26-6.31h-.42l-.1.05m.52-.16.67 1.46.52 3m-10.68 28.6h.55m-.59-.15v-8.54m0 0h.55m-.59-.07v-.33l.08-.09.08-.07.1-.06h.23m0 0 5.07-.09m-5.06.75v.55m5.65-.69v.2l-.09.18-.15.13-.19.07h-.11m0 .66v-.65 0m3.84 5.82h-.27l-.09-.05h-.1m1.71-4.27-.15 1.63-1 2.82m-2.67-23.44h-.68v0m0 16.93v-17m.59 17h-.59v0m4.45-18.78h-.55m.59 20.86h-.58m.59-20.83v20.75m-5-.71h.23l.37-.16.3-.26.19-.36.07-.4m-1.16 1.2-5.07.09m0 0v8.62m-1.17 1.19h.2l.38-.14.31-.27.21-.36.07-.4m-1.17 1.19-10.7.19m0 0v4.48m0 0h10m0 0 2.65-.43 2.35-1.25 1.86-2 .34-.55m0 0 1-1.78 1-1.81 1-1.81m0 0 1-2.66.14-1.53m0 0v-21.04m0 0-.49-2.82-.63-1.37m0 0-1-1.81-1-1.8-1-1.79m0 0-1.8-2.19-2.48-1.47-2.92-.53m0 0h-10m0 0v4.48m0 0 10.7.19m1.17 1.2v-.3l-.16-.36-.26-.29-.33-.18-.38-.07m1.17 1.2v8.53m0 0 5.07.09m1.16 1.2v-.26l-.16-.37-.26-.3-.34-.2-.38-.07m1.16 1.2v17.08m-13.42 3.93-.29.8m0-13.36v.14m.29-.9-.28.76m0 0v.26m.17-.37v.48m7.46 8v.49m0-4.94v1.61m0-6.46v2m0-6.46v1.65m0-4.89v.44m0-.44h-.37m.37 17.52h-.37m.37 0v.12l.07.18v.05m-7.75-9h.06l.11.06m.14.74-.31-.83m0 13.08.29-.78m0-24.81-.31-.85m0 13.08.28-.76m-.11.67-.12.07h-.05m.6-.35-.27.17-.16.09m-3.07-18.49h-.23l-.1.05-.1.08-.07.09-.06.1v.23m10.39.16v-.22l-.05-.1-.08-.09-.08-.08h-.33m0 0h.47m-.47 0-9.2-.16m9.64.16h-.44m-9.2-.16h-.23l-.1.05-.1.08-.07.09-.06.1v.23m10.39.16v-.22l-.05-.1-.08-.09-.08-.08h-.33m-9.2-.16v.41m9.21-.26v.41m-9.19-.58 9.2.16m-9.8.43h.55m-.59 2.51v-2.34m0 3.46v.22l.05.1.07.08.08.08.09.05h.22m-.55-1.71h.55m-.59 1.27v-1.11m0 33.92v.23l.06.1.07.09.1.08h.33m0 0v-.44m9.21.29-9.2.16m9.2-.16h.23l.1-.05.08-.08.08-.08.05-.11v-.22m-.59.59v-.69m-9.79 0v-2.38m0 2.38h.55m3.51-18.76-.11.09-.09.12v.56l.09.12.11.09m-3.55 13.59h-.31l-.08.08-.07.08-.05.1v.22m0 1.08v-1.08m.59 1.21h-.55v0m5.61-4.22.77-1.07.57-1.19.35-1.28.12-1.31m-1.81 4.85-1.09 1-.44.31-.38.24-.15.08h-.05m2.11-15 .77-1.08.57-1.19.35-1.27.12-1.32m-1.81 4.86-1.09 1-.42.31m6.29-17.48h-.55m.6 36.11h-.55m.6-36.08v35.94m-9.8-2.09v2.39m0 0 9.2-.16m0 0v-36.15m0 0-9.2-.16m0 0v2.36m0 30 1.95-.42 2.13-1.18 1.64-1.85 1-2.42.1-2.47-.73-2.37-1.45-2-1.08-.88m-3.55 13.59v1.8m5.3-15.91.32.31 1.75 2.45.87 2.91-.12 3-1.18 3-2 2.26-2.55 1.46-2.42.52m5.3-15.91h-.28l-.35.09-.66.2-.32.1h-.14v0m0-1-.11.09-.09.12v.56l.09.12.11.09m-3.51-16.43 2.33.48 2.54 1.41 2 2.21 1.25 3.06.13 3-.86 2.93-1.75 2.46-.33.32m-5.3-15.91v1.85m3.55 13.59 1.08-.88 1.46-2 .72-2.38-.11-2.48-1-2.49-1.66-1.81-2.11-1.15-1.89-.39m3.55 13.59h.14l.32.08.66.18.35.09h.28m-191.88-9.19H.785m0 22.1h33.86m-34.39-7.76h34.39m0-6.95H.285m34.36 15.46h1.9m0-23.6h-1.9M192.075.535H60.285m-23.74 115.84 1.29 1.3m0-56.18-1.29 1.3m1.29 54.88 10.58.18m0-56.54-10.58.18M49.945.715l-1.51 1.51m11.27-1.68-9.76.17m10.36.43v-.34l-.08-.09-.09-.07-.1-.06h-.23m175.73 109.82h-.15m30.56 12.83h.73m0-16.89h-.73m.73 16.89.65-.34.61-.4.59-.44.55-.49.5-.52.47-.57.42-.6.37-.63m0-8.9-.37-.64-.42-.6-.47-.56-.5-.53-.55-.48-.59-.45-.61-.39-.65-.35m0 0h-.73m.73-75.69h-.73m4.89 4-.37-.63-.42-.6-.47-.57-.5-.53-.55-.48-.59-.44-.61-.4-.65-.35m-66.94 105.2.08-.06.54-.49.51-.53.47-.57.42-.6.37-.63m75.69-90.84v-.17l-.05-.17-.08-.15-.11-.13-.13-.11-.15-.09-.16-.05h-.18m0 0-6.1-.11m7 1v-.17l-.05-.17-.08-.15-.11-.13-.13-.11-.15-.09-.16-.05h-.18m0 0-10.09-.18m0 0h-.34l-.16.08-.14.11-.11.13-.08.16-.06.17v.17m11 16h.17l.16-.05.14-.09.13-.11.11-.13.08-.15v-.33m-3.55 1 2.7-.12m-10.14.22h1.22m-2.1-.9v.34l.09.15.1.13.14.11.15.09.17.05h.17m6.55 2.66v-.86l.23-1.2.31-.53.19-.15h.34m-6.41.08h.06l.13.06.16.15.2.32.19.63.13 1.22v.46m12.89-4.5-.84-.84m0 0h-3.15m-4.45 13.37.42.42m8-12.95-.84-.84m0 13.79.84-.84m-.84-13h-3.15m-4 13.79h7.18m-74.12-47.9v-7.23m1.91 139.62.19-.22.08-.1m0-128.23-.19-.22-.08-.1m1.58 1.56h-.09l-.22-.15-.42-.37-.65-.73.06-.07m.16 128.46.25-.32.65-.64.31-.24h.12v0m-7.84 9.23.07-.09v0m0-144-.07-.08v0m1.42 1.36h-.09l-.22-.16-.43-.38-.66-.74-.1-.14m.17 144.21.26-.32.64-.64.32-.24h.11v0m2.93-6.51v.08zm0-128.49v-.27 0m-6.29 136.2v-.07m0-143.63v-.07 0m7.67 118.22.14-.17.06-.07m0 0 .16-.21.72-.61.41-.19v0m-2.92 4.37.06-.49.18-.61v-.12m0 0 .26-.61.48-.8.36-.44m-1.39 17.9v-14.77m2.67-86.92h-.21l-.41-.27m0 0-.18-.13-.08-.06m-5.6 88.44.21-.09h.05m-.35.11h.07v0m-2.48 3.87v-.21l.14-.57.26-.71.44-.8.59-.79.68-.61.23-.1m3.92-85.58v-.07l.07-.47.12-.27.14-.12h.22m-4.93-6.42h-.07v0m.71.32h-.2l-.41-.28m5.11 69.34-.38-.2-.21-.41-.09-.5v-.33m-6.29-64.83v-.17l.07-.46.12-.27.14-.12h.22m5.75 43.67.06-.53.2-.61.31-.52.4-.37.48-.15h.06m-.07-2.64h-.13l-.54-.28-.4-.51-.25-.63-.06-.58v-.32m-5.61 34.32h-.12l-.39-.3-.16-.42-.06-.53v-.72m4.62 2.2.18-.11m-4.79-27.12.07-.56.2-.61.31-.52.4-.37.48-.14h.06m-.08-2.86h-.11l-.53-.28-.4-.51-.26-.63-.12-.66v-.32m12.23-64.44-.16-.22m-13.84-19.38-.6-.83m0 177.4 14.6-20.43m-14.6-157v-.05 0h-.33m0 177.89h.33v0-.05m-.47-177.65-5.71-.1m0 178.09 5.71-.1m29.53-71.35v-.49m-7.13-18.58-2.1.49-1.3.72m7.3-.27-.89-.45-2.11-.49m6.23-18.64v-.53m7.32 19.55-.69-.46-.85-.17-.85.17-.72.49-.15.16m1.52 3.64-.65.17-.72.48-.15.16m3.26-.19-.69-.45-.66-.17m32.67-66.53v-.49l-.06-.07-.06-.07m0 0-3.93-3.93m0 0-.06-.06h-.56m0 0h-1.12m0 0h-.34l-.15.08-.14.11-.11.13-.08.16v.34m6.83 29.18v-.63l-.06-.09-.07-.09-.08-.07-.09-.07m0 0-3.93-2.58m0 0h-.45m0 0h-1.4m.06 0h-.1l-.22.07-.18.15-.11.21v.19m6.56 105.08.06-.07.06-.07v-.49m-4.2 4.56 3.93-3.93m-4.55 4.19h.49l.07-.06h.06m-1.74.26h1.12m-2-.89v.34l.08.15.11.14.14.11.15.08.17.05h.17m-.89-136.54h-46.3m0 136.54h46.3m6.6-113.76v-.09l-.1-.25-.16-.18h-.08m0 0-2.81-1.92-1.21-.83m-.52-.16h-1.33m0 0h-.34l-.09.08-.08.09v.33m2.46-.39-.13-.08-.28-.08h-.11m-22.47 65.15h-.22m-14.3-17.88" style="fill:none;stroke-linecap:round;stroke-linejoin:round;stroke:#010101;stroke-width:.51px"/><path id="rybz7tlz_path43" d="M266.025 30.585c2.51 1 4.12 2.36 4.85 4.09v6.48l6.1.11a.89.89 0 0 1 .88.89v13.58h3.15l.84.84v12.11l-.84.84h-3.15l-.87.91-7.38.28h-3.72z" class="b4dm963p_cls-10"/><path id="se91z71z_polyline57" d="M459.696 59.275H304.332v9.62h-79.347" style="fill:none;stroke:#37b04a;stroke-width:2px;stroke-linecap:round;stroke-linejoin:round"/><path id="n1i3pzkg_polyline59" d="M459.696 55.585H300.192v9.68h-75.467" style="fill:none;stroke:#d5dc28;stroke-width:2px;stroke-linecap:round;stroke-linejoin:round"/><path id="i7ltc8d9_polyline2575" d="M459.696 79.085H221.085" style="fill:none;stroke:#231f20;stroke-width:15px;stroke-linecap:round;stroke-linejoin:round"/><path id="n0itfjz7_polyline2577" d="M220.425 96.345h239.271" style="fill:none;stroke:#e6282b;stroke-width:15px;stroke-linecap:round;stroke-linejoin:round"/><path id="yu6yhxhz_polyline6489" d="M459.696 119.845H300.192v-10.11h-78.277" style="fill:none;stroke:#37b04a;stroke-width:2px;stroke-linecap:round;stroke-linejoin:round"/><path id="dpv2tvj1_polyline6491" d="M459.696 115.485H304.332v-8.29l-81.747-.28" style="fill:none;stroke:#d5dc28;stroke-width:2px;stroke-linecap:round;stroke-linejoin:round"/></svg></g><g id="g95" transform="translate(558.196 20)"><svg id="twrubj5b_Layer_1" width="151.02" height="125.201" data-name="Layer 1" version="1.1" viewBox="0 0 151.02 125.201"><g id="fb5vqsps_layer1" style="display:inline" transform="translate(40 10)"><path id="p0wkp8ex_path3757" d="M0 85.201h111.02V0H0Z" style="fill:#212121"/><path id="z42fy3h3_rect4425" d="M8.37 15.101h62.19a3.363 3.363 0 0 1 3.37 3.37v48.14a3.363 3.363 0 0 1-3.37 3.37H8.37A3.363 3.363 0 0 1 5 66.611v-48.14a3.363 3.363 0 0 1 3.37-3.37" style="fill:#1a1a1a"/><path id="ai7hvt9v_rect4427" d="M-65.981 8.47h48.31v6h-48.31Z" class="tmgems64_cls-31" style="fill:#99a031" transform="rotate(-90)"/><path id="nzmclu6q_rect4429" d="M-65.981 14.31h48.31V28.6h-48.31z" class="zcr403gt_cls-32" style="fill:#c5cb20" transform="rotate(-90)"/><path id="u21n0t5i_path4431" d="M15.6 52.551c1.37 6.63 9.8 7.21 11.58-.12.87-1.88-.82-2.5-2.57-3.88l-.14-4.75a3.36 3.36 0 0 0-6.16-.09v4.55c-2.06 1.81-3.23 2-2.71 4.29" class="jdwkily1_cls-23"/><path id="y36fuzkq_polygon4433" d="M1718.79 994.01h10.57v-10.58z" class="tmgems64_cls-31" style="fill:#99a031" transform="translate(-1704.47 -957.179)"/><path id="jx016420_polygon4435" d="m1728.79 982.86-10 10v-10z" class="tmgems64_cls-31" style="fill:#99a031" transform="translate(-1704.47 -957.179)"/><path id="qts7dg4t_rect4437" d="M-65.981 28.46h48.31v14.29h-48.31z" class="jgp9pm2x_cls-33" style="fill:#319b40" transform="rotate(-90)"/><path id="gv3762a6_path4439" d="M29.75 52.551c1.37 6.63 9.8 7.21 11.58-.12.87-1.88-.82-2.5-2.57-3.88l-.14-4.75a3.35 3.35 0 0 0-6.15-.09v4.55c-2.07 1.81-3.24 2-2.72 4.29" class="jdwkily1_cls-23"/><path id="omyq2e9v_polygon4441" d="M1732.94 994.01h10.57v-10.58z" class="z6y7sygx_cls-34" style="fill:#257e3b" transform="translate(-1704.47 -957.179)"/><path id="vhjfw4qn_polygon4443" d="m1742.94 982.86-10 10v-10z" class="z6y7sygx_cls-34" style="fill:#257e3b" transform="translate(-1704.47 -957.179)"/><path id="xc7lllu7_rect4445" d="M-65.981 42.53h48.31v14.29h-48.31z" class="zcr403gt_cls-32" style="fill:#c5cb20" transform="rotate(-90)"/><path id="gznz35wz_path4447" d="M43.82 52.551c1.36 6.63 9.8 7.21 11.58-.12.87-1.88-.82-2.5-2.57-3.88l-.14-4.75a3.36 3.36 0 0 0-6.16-.09v4.55c-2.06 1.81-3.23 2-2.71 4.29" class="jdwkily1_cls-23"/><path id="jqmpvp51_polygon4449" d="M1747.01 994.01h10.57v-10.58z" class="tmgems64_cls-31" style="fill:#99a031" transform="translate(-1704.47 -957.179)"/><path id="wo1jqw5b_polygon4451" d="m1757.01 982.86-10 10v-10z" class="tmgems64_cls-31" style="fill:#99a031" transform="translate(-1704.47 -957.179)"/><path id="s0cnpt9v_rect4453" d="M-65.981 56.68h48.31v14.29h-48.31z" class="jgp9pm2x_cls-33" style="fill:#319b42" transform="rotate(-90)"/><path id="xwaxw6ht_path4455" d="M57.97 52.551c1.37 6.63 9.8 7.21 11.58-.12.87-1.88-.82-2.5-2.57-3.88l-.14-4.75a3.36 3.36 0 0 0-6.16-.09v4.55c-2.06 1.81-3.23 2-2.71 4.29" class="jdwkily1_cls-23"/><path id="a7vcp3nz_polygon4457" d="M1761.16 994.01h10.57v-10.58z" class="z6y7sygx_cls-34" style="fill:#257e3b" transform="translate(-1704.47 -957.179)"/><path id="pq756zdc_polygon4459" d="m1771.16 982.86-10 10v-10z" class="z6y7sygx_cls-34" style="fill:#257e3b" transform="translate(-1704.47 -957.179)"/><path id="srkcwn3j_path4553" d="M38.87 8.701a2.2 2.2 0 0 1-.3 1 1.9 1.9 0 0 1-.72.66 2.4 2.4 0 0 1-1.13.24 2.13 2.13 0 0 1-1.17-.31 2.1 2.1 0 0 1-.76-.9 3.2 3.2 0 0 1-.27-1.37v-.43a3.2 3.2 0 0 1 .27-1.37 2.1 2.1 0 0 1 .78-.9 2.2 2.2 0 0 1 1.19-.32 2.3 2.3 0 0 1 1.1.24 1.77 1.77 0 0 1 .71.67 2.5 2.5 0 0 1 .3 1h-1a1.4 1.4 0 0 0-.3-.8 1 1 0 0 0-.84-.29 1.18 1.18 0 0 0-.7.2 1.24 1.24 0 0 0-.42.61 2.8 2.8 0 0 0-.15 1v.44a3.4 3.4 0 0 0 .13 1 1.3 1.3 0 0 0 .4.62 1.1 1.1 0 0 0 .7.22 1.4 1.4 0 0 0 .64-.13.83.83 0 0 0 .38-.36 1.6 1.6 0 0 0 .16-.59z" class="s3r86lw8_cls-19"/><path id="ucalg9n5_path4555" d="M40.53 10.491h-1l2-5.45h.65l-.07.77zm2.89-1.25h-3v-.78h3zm-1.56-3.43-.07-.77h.65l2.06 5.45h-1z" class="s3r86lw8_cls-19"/><path id="g29aap7c_path4557" d="M49.76 10.491h-1l-2.41-3.84v3.84h-1v-5.45h1l2.41 3.84v-3.84h1z" class="s3r86lw8_cls-19"/><path id="vos4qdyl_path4559" d="M18.21 78.541h-1v-5.45h1zm2.63-2.41h-2.87v-.78h2.87zm.74 2.41h-1v-5.45h1z" class="s3r86lw8_cls-19"/><path id="yp0mfyqx_path4561" d="M33.62 78.541h-1v-5.45h1zm2.46 0h-2.73v-.72h2.73z" class="s3r86lw8_cls-19"/><path id="ou0owbe9_path4563" d="M47.73 78.541h-1v-5.45h1zm2.63-2.41h-2.83v-.78h2.87zm.74 2.41h-1v-5.45h1z" class="s3r86lw8_cls-19"/><path id="qsvcmz7y_path4565" d="M63.14 78.541h-1v-5.45h1zm2.46 0h-2.73v-.72h2.73z" class="s3r86lw8_cls-19"/><path id="q6n2bwkb_rect4583" d="M87.37 28.891h8.59c1.551 0 2.8 1.25 2.8 2.8v21.58c0 1.552-1.249 2.8-2.8 2.8h-8.59a2.794 2.794 0 0 1-2.8-2.8v-21.58c0-1.55 1.249-2.8 2.8-2.8" class="f1nbk6yr_cls-35" style="fill:#080808"/><path id="m77asbg9_rect4585" d="M88.17 29.971h6.97a2.455 2.455 0 0 1 2.46 2.46v20.1a2.455 2.455 0 0 1-2.46 2.46h-6.97a2.455 2.455 0 0 1-2.46-2.46v-20.1a2.455 2.455 0 0 1 2.46-2.46" style="fill:#e8e8e8"/><path id="j53mwvfe_rect4587" d="M89.27 35.401h4.78c.338 0 .61.272.61.61v4.78c0 .338-.272.61-.61.61h-4.78a.61.61 0 0 1-.61-.61v-4.78c0-.338.272-.61.61-.61" class="f1nbk6yr_cls-35" style="fill:#080808"/><path id="m5gwvg5n_rect4589" d="M77.51 15.101h28.01v54.61H77.51Z" style="fill:none;stroke:#e8e8e8;stroke-miterlimit:10"/><path id="gn7whhrj_rect4591" d="M77.51 69.711h28.01v9.99H77.51Z" style="fill:#e8e8e8;stroke:#e8e8e8;stroke-miterlimit:10"/><path id="juhk88lt_path4593" d="M84.53 73.031h-4.34v-.77h4.34zm-1.7 4.68h-1v-5.45h1z" class="rtd6rwe3_cls-52"/><path id="ibpnhepo_path4595" d="M86.53 77.711h-1v-5.45h1zm2.59-4.68h-2.86v-.77h2.86zm-.36 2.25h-2.5v-.76h2.5zm.38 2.43h-2.88v-.78h2.88z" class="rtd6rwe3_cls-52"/><path id="ncxdsu6z_path4597" d="M92.16 72.261a2.8 2.8 0 0 1 1.07.18 1.46 1.46 0 0 1 .68.56 1.67 1.67 0 0 1 .23.9 1.6 1.6 0 0 1-.15.72 1.54 1.54 0 0 1-.42.53 2 2 0 0 1-.65.32l-.3.15H90.9v-.8h1.28a1.2 1.2 0 0 0 .56-.12.73.73 0 0 0 .33-.32 1 1 0 0 0 .11-.46.93.93 0 0 0-.24-.67 1.06 1.06 0 0 0-.77-.25h-1v4.68h-1v-5.45zm-.11 3h1l1.29 2.4v.05h-1z" class="rtd6rwe3_cls-52"/><path id="w73s4dvy_path4599" d="m96.18 72.261.14 3.7v1.75h-1v-5.45zm.43 0 1.55 4.15 1.55-4.15h.86l-2.07 5.45h-.68l-2.07-5.45zm4.36 0v5.45h-1v-1.75l.15-3.7z" class="rtd6rwe3_cls-52"/><path id="q15l7p4o_path4601" d="M102.33 77.241a.5.5 0 0 1 .14-.37.56.56 0 0 1 .39-.14.56.56 0 0 1 .4.14.5.5 0 0 1 .15.37.46.46 0 0 1-.15.36.52.52 0 0 1-.4.15.53.53 0 0 1-.39-.15.45.45 0 0 1-.14-.36" class="rtd6rwe3_cls-52"/><path id="z9ib10f3_path4603" d="M89.53 61.251a3.3 3.3 0 0 1-.28 1.42 2.1 2.1 0 0 1-2 1.24 2.25 2.25 0 0 1-1.19-.32 2.2 2.2 0 0 1-.8-.92 3.3 3.3 0 0 1-.29-1.42v-.28a3.15 3.15 0 0 1 .29-1.43 2.1 2.1 0 0 1 2-1.24 2.23 2.23 0 0 1 1.19.32 2.16 2.16 0 0 1 .79.92 3.3 3.3 0 0 1 .29 1.43zm-1-.29a3 3 0 0 0-.15-1 1.34 1.34 0 0 0-.45-.62 1.16 1.16 0 0 0-.7-.21 1.18 1.18 0 0 0-.7.21 1.3 1.3 0 0 0-.44.62 2.8 2.8 0 0 0-.16 1v.29a2.8 2.8 0 0 0 .16 1 1.35 1.35 0 0 0 .45.63 1.14 1.14 0 0 0 .7.21 1.16 1.16 0 0 0 .7-.21 1.4 1.4 0 0 0 .44-.63 3 3 0 0 0 .15-1z" class="s3r86lw8_cls-19"/><path id="govmdcf7_path4605" d="M91.69 63.821h-1v-5.45h1zm2.51-4.67h-2.75v-.78h2.75zm-.31 2.37h-2.44v-.78h2.44z" class="s3r86lw8_cls-19"/><path id="o2lxoeuq_path4607" d="M96.21 63.821h-1v-5.45h1zm2.52-4.67h-2.76v-.78h2.76zm-.32 2.37h-2.44v-.78h2.44z" class="s3r86lw8_cls-19"/><path id="dpnf2h1o_path4609" d="M91.05 24.251a3.5 3.5 0 0 1-.28 1.43 2.26 2.26 0 0 1-3.17.91 2.16 2.16 0 0 1-.8-.91 3.3 3.3 0 0 1-.29-1.43v-.28a3.1 3.1 0 0 1 .29-1.42 2.13 2.13 0 0 1 .8-.92 2.2 2.2 0 0 1 1.18-.32 2.23 2.23 0 0 1 1.19.32 2.1 2.1 0 0 1 .79.92 3.24 3.24 0 0 1 .29 1.42zm-1-.29a3 3 0 0 0-.15-1 1.3 1.3 0 0 0-.45-.63 1.16 1.16 0 0 0-.7-.21 1.18 1.18 0 0 0-.7.21 1.3 1.3 0 0 0-.44.63 2.7 2.7 0 0 0-.16 1v.29a2.8 2.8 0 0 0 .16 1 1.25 1.25 0 0 0 .45.63 1.13 1.13 0 0 0 .69.21 1.17 1.17 0 0 0 .71-.21 1.3 1.3 0 0 0 .44-.63 3 3 0 0 0 .15-1z" class="s3r86lw8_cls-19"/><path id="j0a59iu3_path4611" d="M96.62 26.821h-1l-2.4-3.85v3.85h-1v-5.46h1l2.41 3.85v-3.85h1z" class="s3r86lw8_cls-19"/><path id="as8mlwzo_polyline6489" d="M1747.126 1061.84h-57.112v-48.43" class="fdgap9vd_cls-84" style="fill:none;stroke:#37b04a;stroke-width:2;stroke-linejoin:round;stroke-miterlimit:4;stroke-dasharray:6,2;stroke-dashoffset:1.8" transform="translate(-1704.484 -959.427)"/><path id="izg5kn58_polyline6491" d="M1747.126 1057.48h-52.642v-44.07" class="i5ptds7o_cls-83" style="fill:none;stroke:#d5dc28;stroke-width:2;stroke-linecap:butt;stroke-linejoin:round;stroke-miterlimit:4;stroke-dasharray:6,2;stroke-dashoffset:6.4" transform="translate(-1704.484 -959.427)"/><g id="loyqsh5c_text85380" aria-label="PDH CAN" style="font-size:21.3333px;line-height:1.25;font-family:Roboto;-inkscape-font-specification:Roboto;letter-spacing:0;word-spacing:0"><path id="path229" d="M26.458-16.385v6.177h-1.282v-15.167h5.167q2.5 0 3.802 1.26 1.302 1.25 1.302 3.26 0 2.105-1.302 3.293-1.302 1.177-3.802 1.177zm0-7.896v6.802h3.885q2.02 0 2.917-.969.906-.969.906-2.385 0-1.396-.906-2.417-.896-1.031-2.917-1.031z" style="font-weight:300;-inkscape-font-specification:&quot;Roboto Light&quot;"/><path id="path231" d="M38.312-10.208v-15.167h4.24q2.833 0 4.645 1.885 1.823 1.886 1.823 5v1.396q0 3.125-1.823 5.01-1.812 1.876-4.74 1.876zm1.281-14.073v12.99h2.865q2.437 0 3.864-1.605 1.427-1.614 1.427-4.198v-1.416q0-2.625-1.427-4.198t-3.77-1.573z" style="font-weight:300;-inkscape-font-specification:&quot;Roboto Light&quot;"/><path id="path233" d="M62.239-10.208v-7.271h-8.667v7.27h-1.281v-15.166h1.281v6.802h8.667v-6.802h1.281v15.167z" style="font-weight:300;-inkscape-font-specification:&quot;Roboto Light&quot;"/><path id="path235" d="M82.03-14.937h1.282q-.24 2.312-1.657 3.625Q80.24-10 77.74-10q-2.573 0-4.125-1.854T72.03-16.73v-2.01q0-3.073 1.563-4.959 1.573-1.885 4.23-1.885 2.426 0 3.832 1.312 1.417 1.302 1.657 3.636H82.03q-.229-1.834-1.24-2.844t-2.968-1.01q-2.104 0-3.312 1.583-1.198 1.573-1.198 4.146v1.916q0 2.51 1.156 4.136 1.156 1.625 3.27 1.625 2.011 0 3.032-.97 1.02-.968 1.26-2.884" style="font-weight:300;-inkscape-font-specification:&quot;Roboto Light&quot;"/><path id="path237" d="m84.833-10.208 5.729-15.167h1.218l5.74 15.167h-1.333l-1.563-4.25h-6.896l-1.562 4.25zm3.302-5.344h6.083l-3.042-8.27z" style="font-weight:300;-inkscape-font-specification:&quot;Roboto Light&quot;"/><path id="path239" d="M111.062-25.375v15.167h-1.292l-8.708-12.98v12.98H99.77v-15.167h1.292l8.718 12.98v-12.98z" style="font-weight:300;-inkscape-font-specification:&quot;Roboto Light&quot;"/></g><path id="y2577vof_path884" d="M1694.484 1013.41v-10.45h-30" class="i5ptds7o_cls-83" style="fill:none;stroke:#d5dc28;stroke-width:2px;stroke-linejoin:round" transform="translate(-1704.484 -959.427)"/><path id="p5g20wqf_path886" d="M49.646 49.733v48.32H40.94" class="i5ptds7o_cls-83" style="fill:none;stroke:#d5dc28;stroke-width:2px;stroke-linecap:round;stroke-linejoin:round"/><path id="au1txdol_path1569" d="M1690.014 1013.41v-5.98h-25.53" class="fdgap9vd_cls-84" style="fill:none;stroke:#37b04a;stroke-width:2px;stroke-linejoin:round" transform="translate(-1704.484 -959.427)"/><path id="kjrj25gk_path1571" d="M1768.3 1009.16v52.68h-22.877" class="fdgap9vd_cls-84" style="fill:none;stroke:#37b04a;stroke-width:2px;stroke-linecap:round;stroke-linejoin:round" transform="translate(-1704.484 -959.427)"/></g></svg></g><g id="g134" transform="translate(558.196 205.201)"><svg id="u5cx4sgh_Layer_1" width="237.772" height="87.129" data-name="Layer 1" version="1.1"><path id="fiem7yob_polyline2575" d="M22.681 29.73H0" class="ppc78dak_cls-output-wire" style="fill:none;stroke:#231f20;stroke-linecap:butt;stroke-linejoin:round"/><path id="ja516t1d_rect35911" d="M22.681 10.542h111.925v66.047H22.681Z" style="fill:#1a1a1a;stroke-linecap:round;stroke-linejoin:bevel;paint-order:stroke fill markers"/><path id="g7nr0rxj_polyline2577" d="M0 59.85h22.68" class="ppc78dak_cls-output-wire" style="fill:none;stroke:#e6282b;stroke-linecap:butt;stroke-linejoin:round"/><path id="ww3qi2of_rect30883" d="M120.821 10.542h116.41v66.047h-116.41z" style="fill:#212121;stroke-linecap:round;stroke-linejoin:bevel;paint-order:stroke fill markers"/><path id="qgupx07t_path3895" d="M124.881 21.475h98.83c3.75.87 6 3 6.58 6.53l.07 11.47a7.43 7.43 0 0 1-6.88 7.13h-37.55c-2.32.24-3.3 1.05-3.31 2.29v2.28c-.62 3.62-2.63 5.81-6.08 6.52l-51.66.06z" style="fill:#bababa"/><g id="yrhbo5tp_text2941" aria-label="##" style="font-size:12.2667px;line-height:1.25;font-family:Roboto;-inkscape-font-specification:Roboto;letter-spacing:0;word-spacing:0;fill:#747578" transform="rotate(90)"><path id="qtsgc8bj_path867" d="M42.475-132.123h-.965l-.401 2.456h-1.192l.401-2.456h-1.33v-1.096h1.51l.264-1.581h-1.324v-1.096h1.503l.414-2.492h1.186l-.408 2.492h.965l.413-2.492h1.192l-.414 2.492h1.384v1.096H44.11l-.264 1.581h1.372v1.096h-1.551l-.402 2.456h-1.192zm-.785-1.096h.964l.264-1.581h-.964z" style="font-weight:900;-inkscape-font-specification:&quot;Roboto Heavy&quot;"/><path id="fpmftre0_path869" d="M49.602-132.123h-.964l-.401 2.456h-1.192l.401-2.456h-1.33v-1.096h1.51l.263-1.581h-1.323v-1.096h1.503l.413-2.492h1.186l-.407 2.492h.964l.413-2.492h1.192l-.413 2.492h1.384v1.096h-1.564l-.263 1.581h1.371v1.096h-1.55l-.402 2.456H49.2zm-.784-1.096h.964l.263-1.581h-.964z" style="font-weight:900;-inkscape-font-specification:&quot;Roboto Heavy&quot;"/></g><path id="lag8xhtz_circle3905" d="M135.801 31.525a3.05 3.05 0 0 1-3.05 3.05 3.05 3.05 0 0 1-3.05-3.05 3.05 3.05 0 0 1 3.05-3.05 3.05 3.05 0 0 1 3.05 3.05" style="fill:#ed3837"/><path id="y72yxnnw_rect4283" d="M-113.871-73.435h87.18v30.3h-87.18z" style="fill:#d93b37" transform="scale(-1)"/><path id="n9tturpf_polygon4285" d="M1700.52 278.15v-2.58h-64.6v3.15h55.73v27.15h8.87v-23.72h-6.58v-3.72z" style="fill:#ef413e" transform="translate(-1586.639 -232.445)"/><path id="co3evt2o_path4287" d="M15.551 65.995c.34 4.4 3.34 7.2 9.14 8.29h24v-1.14h25.15l5.14-7.15h23.44v-14.29h-23.44l-8.57-4.86h-21.72v-1.43h-24c-5.59 1.24-8.71 3.73-9.15 7.58zm30-10.86v-1.43h4.29v1.43q5.73 4.71 0 9.43v1.43h-4.29v-1.44c-4.27-3.07-4.1-6.21.01-9.42z" class="dxj7zn3m_cls-123"/><path id="fc0pnrml_rect4289" d="M-113.871-43.145h87.18v30.3h-87.18z" style="fill:#231f20" transform="scale(-1)"/><path id="mfgkktn8_polygon4291" d="M1700.52 247.87v-2.57h-64.6v3.14h55.73v27.16h8.87v-23.73h-6.58v-3.71z" class="hqbhqvv6_cls-30" transform="translate(-1586.639 -232.445)"/><path id="ztb6je34_path4293" d="M15.551 35.715c.34 4.41 3.34 7.2 9.14 8.29h24v-1.14h25.15l5.14-7.15h23.44v-14.29h-23.44l-8.57-4.86h-21.72v-1.43h-24c-5.59 1.24-8.71 3.73-9.15 7.58zm30-10.86v-1.43h4.29v1.43q5.73 4.72 0 9.43v1.43h-4.29v-1.43c-4.27-3.08-4.1-6.22.01-9.43z" class="dxj7zn3m_cls-123"/><g id="p2tz7h1o_layer3" style="display:inline" transform="translate(15.541 -140.975)"><g id="u3rlb489_g33009"><path id="lti3dl3g_rect3897" d="M139.43 169.02h64.76c1.152 0 2.08.928 2.08 2.08v8.27c0 1.152-.928 2.08-2.08 2.08h-64.76a2.075 2.075 0 0 1-2.08-2.08v-8.27c0-1.152.928-2.08 2.08-2.08" style="fill:#1a1a1a"/><path id="drkdmojo_rect3899" d="M139.35 169.88h65.19c.47 0 .85.38.85.85v8.59c0 .47-.38.85-.85.85h-65.19c-.47 0-.85-.38-.85-.85v-8.59c0-.47.38-.85.85-.85" class="hqbhqvv6_cls-30" style="fill:#323031"/><path id="uno27ezh_polygon3901" d="M1741.78 261.04v6.29l1.43 2h25.44l1.15-1.43v-6.86h-1.72v6.58l-.29.28h-24.01l-.28-.28v-6.58z" class="gjp2j145_cls-121" transform="translate(-1602.18 -91.47)"/><path id="ic24g970_polygon3903" d="M1778.69 261.04v6.29l1.43 2h25.44l1.14-1.43v-6.86h-1.72v6.58l-.28.28h-24.01l-.29-.28v-6.58z" class="gjp2j145_cls-121" transform="translate(-1602.18 -91.47)"/><path id="h8lsd57o_rect4857" d="M140.28 154.84h70.52a6.815 6.815 0 0 1 6.83 6.83v26.73a6.815 6.815 0 0 1-6.83 6.83h-70.52a6.815 6.815 0 0 1-6.83-6.83v-26.73a6.815 6.815 0 0 1 6.83-6.83" style="fill:#d79528"/><path id="hppsrj3h_path4859" d="M157.02 180.21h-1.59v-7.42l-2.26.76v-1.33l3.65-1.33h.2z" class="by61yxz0_cls-134"/><path id="gcak5k45_path4861" d="M166.47 180.21h-6.26v-1.09l3-3.29a10 10 0 0 0 .78-.95 3.4 3.4 0 0 0 .4-.72 2.1 2.1 0 0 0 .11-.63 1.6 1.6 0 0 0-.35-1.06 1.29 1.29 0 0 0-1-.41 1.6 1.6 0 0 0-.86.22 1.37 1.37 0 0 0-.52.6 2.1 2.1 0 0 0-.18.89h-1.58a3.14 3.14 0 0 1 .37-1.5 2.8 2.8 0 0 1 1.08-1.08 3.5 3.5 0 0 1 1.7-.4 3.08 3.08 0 0 1 2.17.7 2.41 2.41 0 0 1 .77 1.87 2.8 2.8 0 0 1-.25 1.16 5.7 5.7 0 0 1-.68 1.13 14 14 0 0 1-1 1.16l-2 2.13h4.26z" class="by61yxz0_cls-134"/><path id="x8hjg0ni_path4863" d="m171.27 178.46.33 1.75h-1.23l-3.31-9.29h1.81zm2.23-7.54h1.82l-3.32 9.29h-1.18l.31-1.75z" class="by61yxz0_cls-134"/><path id="c7camlyc_path4865" d="M182.53 178.14h-6.71v-1l4-6.25h1.27l-1.35 2.37-2.27 3.58h5.13zm-1.15 2.07h-1.56v-9.29h1.59z" class="by61yxz0_cls-134"/><path id="u5dkrig9_path4867" d="M189.62 176.32a6 6 0 0 1-.38 2.32 2.6 2.6 0 0 1-1.06 1.29 3.07 3.07 0 0 1-1.6.41 3.13 3.13 0 0 1-1.61-.41 2.62 2.62 0 0 1-1.07-1.29 5.8 5.8 0 0 1-.39-2.32v-1.54a5.9 5.9 0 0 1 .38-2.32 2.58 2.58 0 0 1 1.07-1.27 3.1 3.1 0 0 1 1.6-.4 3.1 3.1 0 0 1 1.61.4 2.53 2.53 0 0 1 1.07 1.27 5.9 5.9 0 0 1 .38 2.32zm-1.58-1.78a5.1 5.1 0 0 0-.17-1.45 1.45 1.45 0 0 0-.5-.78 1.34 1.34 0 0 0-.81-.24 1.3 1.3 0 0 0-.79.24 1.45 1.45 0 0 0-.5.78 4.8 4.8 0 0 0-.17 1.45v2a5 5 0 0 0 .17 1.47 1.6 1.6 0 0 0 .51.81 1.34 1.34 0 0 0 .8.25 1.3 1.3 0 0 0 .8-.25 1.54 1.54 0 0 0 .49-.81 5.3 5.3 0 0 0 .17-1.47z" class="by61yxz0_cls-134"/><path id="ayz60zog_path4869" d="M192.11 180.21h-1.72l3.49-9.29h1.1l-.11 1.32zm4.94-2.12h-5.06v-1.33h5.06zm-2.66-5.85-.12-1.32h1.11l3.51 9.29h-1.73z" class="by61yxz0_cls-134"/></g></g><g id="qtpujwsv_text85380" aria-label="PDH High Current" style="font-size:21.3333px;line-height:1.25;font-family:Roboto;-inkscape-font-specification:Roboto;letter-spacing:0;word-spacing:0"><path id="path248" d="M76.429-6.385v6.177h-1.282v-15.167h5.167q2.5 0 3.802 1.26 1.302 1.25 1.302 3.26 0 2.105-1.302 3.293-1.302 1.177-3.802 1.177zm0-7.896v6.802h3.885q2.02 0 2.917-.969.906-.969.906-2.385 0-1.396-.906-2.417-.896-1.031-2.917-1.031z" style="font-weight:300;-inkscape-font-specification:&quot;Roboto Light&quot;"/><path id="path250" d="M88.283-.208v-15.167h4.24q2.833 0 4.645 1.885 1.823 1.886 1.823 5v1.396q0 3.125-1.823 5.01-1.812 1.876-4.74 1.876zm1.28-14.073v12.99h2.865q2.438 0 3.865-1.605Q97.72-4.51 97.72-7.094V-8.51q0-2.625-1.427-4.198t-3.77-1.573z" style="font-weight:300;-inkscape-font-specification:&quot;Roboto Light&quot;"/><path id="path252" d="M112.21-.208V-7.48h-8.667v7.27h-1.281v-15.166h1.281v6.802h8.667v-6.802h1.281V-.208z" style="font-weight:300;-inkscape-font-specification:&quot;Roboto Light&quot;"/><path id="path254" d="M132.501-.208V-7.48h-8.666v7.27h-1.282v-15.166h1.282v6.802h8.666v-6.802h1.282V-.208z" style="font-weight:300;-inkscape-font-specification:&quot;Roboto Light&quot;"/><path id="path256" d="M137.272-14.74q0-.843.854-.843.865 0 .865.843 0 .823-.865.823-.854 0-.854-.823m1.469 3.26V-.207h-1.24V-11.48z" style="font-weight:300;-inkscape-font-specification:&quot;Roboto Light&quot;"/><path id="path258" d="M146.2 4.292q-1.053 0-2.157-.49-1.094-.48-1.77-1.437l.697-.76q1.302 1.624 3.156 1.624 1.594 0 2.47-.948.874-.948.874-2.646v-1.312Q148.262 0 145.97 0q-1.99 0-3.146-1.562-1.146-1.573-1.177-4.042v-.344q0-2.625 1.156-4.177 1.157-1.562 3.188-1.562 2.312 0 3.51 1.822l.052-1.614h1.167V-.406q0 2.198-1.24 3.448-1.229 1.25-3.28 1.25M142.896-5.73q0 1.969.802 3.312.813 1.334 2.51 1.334 1.282 0 2.063-.594.792-.594 1.198-1.49v-5.208q-.354-.865-1.115-1.542-.75-.687-2.125-.687-1.718 0-2.53 1.344-.803 1.343-.803 3.312z" style="font-weight:300;-inkscape-font-specification:&quot;Roboto Light&quot;"/><path id="path260" d="M158.585-10.615q-1.313 0-2.157.823-.833.813-1.198 1.834v7.75h-1.25v-16h1.25v6.614q.584-.948 1.521-1.52.938-.573 2.146-.573 1.667 0 2.625.947.958.938.969 3.136v7.396h-1.25v-7.396q-.01-1.719-.73-2.365-.708-.646-1.926-.646" style="font-weight:300;-inkscape-font-specification:&quot;Roboto Light&quot;"/><path id="path262" d="M180.647-4.937h1.281q-.24 2.312-1.656 3.625Q178.855 0 176.355 0q-2.572 0-4.125-1.854t-1.583-4.875v-2.01q0-3.073 1.563-4.959 1.573-1.885 4.229-1.885 2.427 0 3.833 1.312 1.417 1.302 1.656 3.636h-1.28q-.23-1.834-1.24-2.844t-2.97-1.01q-2.103 0-3.312 1.583-1.198 1.573-1.198 4.146v1.916q0 2.51 1.157 4.136 1.156 1.625 3.27 1.625 2.01 0 3.032-.97 1.02-.968 1.26-2.884" style="font-weight:300;-inkscape-font-specification:&quot;Roboto Light&quot;"/><path id="path264" d="m192.032-.208-.03-1.427Q190.875 0 188.417 0q-1.646 0-2.677-.969-1.021-.968-1.031-3.25v-7.26h1.25v7.229q0 1.802.76 2.49.77.677 1.844.677 1.49 0 2.291-.625.813-.636 1.125-1.594v-8.177h1.25V-.21z" style="font-weight:300;-inkscape-font-specification:&quot;Roboto Light&quot;"/><path id="path266" d="M200.845-10.5q-1.26 0-2.042.708-.77.698-1.083 1.813v7.77h-1.25v-11.27h1.219l.03 1.76q1-1.968 3.168-1.968.5 0 .833.125l-.042 1.135q-.49-.073-.833-.073" style="font-weight:300;-inkscape-font-specification:&quot;Roboto Light&quot;"/><path id="path268" d="M208.032-10.5q-1.26 0-2.041.708-.771.698-1.084 1.813v7.77h-1.25v-11.27h1.22l.03 1.76q1-1.968 3.167-1.968.5 0 .833.125l-.041 1.135q-.49-.073-.834-.073" style="font-weight:300;-inkscape-font-specification:&quot;Roboto Light&quot;"/><path id="path270" d="M219.012-2q-.552.823-1.521 1.417-.969.583-2.48.583-2.197 0-3.624-1.552t-1.427-3.98v-.447q0-2.604 1.447-4.156 1.459-1.552 3.386-1.552 2.146 0 3.302 1.458 1.156 1.448 1.156 3.698v.76h-8.041v.24q0 1.864 1.062 3.177 1.073 1.302 2.792 1.302 1.99 0 3.156-1.542zm-4.22-8.625q-1.426 0-2.385 1.042-.947 1.041-1.145 2.75h6.74v-.136q-.032-1.416-.834-2.531-.792-1.125-2.375-1.125" style="font-weight:300;-inkscape-font-specification:&quot;Roboto Light&quot;"/><path id="path272" d="M226.282-10.615q-1.312 0-2.156.823-.833.813-1.198 1.834v7.75h-1.25V-11.48h1.198l.042 1.906q.583-.958 1.52-1.531.949-.583 2.157-.583 1.667 0 2.625.947.958.938.969 3.136v7.396h-1.25v-7.396q-.01-1.719-.73-2.365-.708-.646-1.927-.646" style="font-weight:300;-inkscape-font-specification:&quot;Roboto Light&quot;"/><path id="path274" d="M237.887-.167q-.48.167-1.334.167-1.083 0-1.77-.625-.688-.635-.688-2.333v-7.5h-2.063v-1.021h2.063v-2.896h1.26v2.896h2.323v1.02h-2.323v7.5q0 1.188.438 1.532.448.333 1.02.333.417 0 1.022-.114z" style="font-weight:300;-inkscape-font-specification:&quot;Roboto Light&quot;"/></g></svg></g><g id="g192" transform="translate(558.196 352.33)"><svg id="ekevt1ke_Layer_1" width="71.95" height="74.65" data-name="Layer 1" version="1.1" viewBox="0 0 71.95 74.65"><g id="r27n1qt6_layer2" transform="translate(5.91 2.02)"><path id="bk3rwdyp_path1877" d="M66.04 62.63H14.09V7.98h51.95" style="fill:#4e4e50"/><path id="vrsv4k5j_rect2151" d="M19.09 25.73h27.96v15.95H19.09z" class="jgs7emi6_cls-62" style="fill:#5b5a5d"/><path id="lmi9xs8c_rect2153" d="M25.38 28.72h17.94v9.47H25.38z" class="n51vm859_cls-63" style="fill:#f2f2f2"/><path id="r2yfjrxh_rect2157" d="M19.09 41.68h27.96v15.95H19.09z" class="jgs7emi6_cls-62" style="fill:#5b5a5d"/><path id="k9rc4e5l_rect2159" d="M25.38 44.67h17.94v9.47H25.38z" class="n51vm859_cls-63" style="fill:#f2f2f2"/><g id="hv2cfbvr_g1739"><path id="vgzty3rc_path2155" d="M33.72 33.71a6.29 6.29 0 1 1-6.29-6.3 6.29 6.29 0 0 1 6.29 6.3" class="wgped52a_cls-61" style="fill:#211e1e"/><path id="kkl0q6ss_path2161" d="M33.72 49.66a6.29 6.29 0 1 1-6.29-6.3 6.29 6.29 0 0 1 6.29 6.3" class="wgped52a_cls-61" style="fill:#211e1e"/></g><path id="o9opuhvh_path2275" d="M29.04 18.05a3.2 3.2 0 0 1-.41 1.26 2.3 2.3 0 0 1-.92.88 3.2 3.2 0 0 1-1.49.32 2.7 2.7 0 0 1-1.53-.43 2.8 2.8 0 0 1-1-1.2 4.2 4.2 0 0 1-.37-1.81v-.75a4.3 4.3 0 0 1 .37-1.81 2.83 2.83 0 0 1 1-1.2 2.87 2.87 0 0 1 1.59-.43 3 3 0 0 1 1.42.32 2.24 2.24 0 0 1 .91.87 3.5 3.5 0 0 1 .4 1.29h-1a2.4 2.4 0 0 0-.5-1.23 1.55 1.55 0 0 0-1.24-.45 1.78 1.78 0 0 0-1.1.33 2 2 0 0 0-.67.92 3.9 3.9 0 0 0-.23 1.38v.76a4.3 4.3 0 0 0 .2 1.33 2.2 2.2 0 0 0 .63 1 1.65 1.65 0 0 0 1.08.35 2 2 0 0 0 1-.2 1.24 1.24 0 0 0 .56-.57 2.9 2.9 0 0 0 .28-.89z" class="oy5ztui7_cls-2" style="fill:#fff"/><path id="zwo0ue3i_path2277" d="M30.67 20.41h-1l2.83-7.43h.65v.66zm4.38-1.95h-4.17v-.8h4.17zm-2.34-4.82v-.66h.65l2.84 7.43h-1z" class="oy5ztui7_cls-2" style="fill:#fff"/><path id="gkxopq99_path2279" d="M42.9 20.41h-1l-3.72-5.74v5.74h-1v-7.43h1l3.74 5.76v-5.76h1z" class="oy5ztui7_cls-2" style="fill:#fff"/><path id="i70yki3r_path2281" d="M57.89 50.98h-.65v-5h.65zm2.58-2.29h-2.68v-.53h2.68zm.57 2.29h-.66v-5h.66z" class="oy5ztui7_cls-2" style="fill:#fff"/><path id="o39myard_path2283" d="M57.89 33.93h-.65v-4.95h.65zm2.35 0h-2.47v-.53h2.47z" class="oy5ztui7_cls-2" style="fill:#fff"/><path id="xhqyo6oo_path2447" d="M39.97 33.46a.94.94 0 1 1-.93-.94.93.93 0 0 1 .93.94" class="wgped52a_cls-61" style="fill:#211e1e"/><path id="du7k4a8m_path2449" d="M39.97 49.66a.94.94 0 1 1-.93-.94.93.93 0 0 1 .93.94" class="wgped52a_cls-61" style="fill:#211e1e"/><g id="kuc1j92k_g1657" transform="translate(23.843 1.027)"><path id="p1wu0ail_polyline6489" d="M-29.753 38.414h13.71v10.21h14.669" class="cbc7sd6k_cls-84" style="display:inline;fill:none;stroke:#d5dc28;stroke-width:2px;stroke-linejoin:round;stroke-opacity:1"/><path id="e8whxwfh_polyline6491" d="M-29.753 42.884h16.855v-10.21h11.524" class="ub9x18av_cls-83" style="display:inline;fill:none;stroke:#37b04a;stroke-width:2px;stroke-linejoin:round;stroke-opacity:1"/><path id="qvu8eerl_path2800" d="M-1.374 48.623h4.96" class="cbc7sd6k_cls-84" style="display:inline;fill:none;stroke:#d5dc28;stroke-width:2px;stroke-linecap:round;stroke-linejoin:round;stroke-opacity:1"/><path id="oied8hci_path2802" d="M-1.374 32.673h4.96" class="ub9x18av_cls-83" style="display:inline;fill:none;stroke:#37b04a;stroke-width:2px;stroke-linecap:round;stroke-linejoin:round;stroke-opacity:1"/></g><g id="pyr6sifz_text85380" aria-label="RIO CAN" style="font-size:21.3333px;line-height:1.25;font-family:Roboto;-inkscape-font-specification:Roboto;letter-spacing:0;word-spacing:0;display:inline"><path id="path281" d="M-1.94-2.228-5.596-8.55h-4.416v6.323h-1.282v-15.166h4.927q2.365 0 3.75 1.145 1.396 1.146 1.396 3.323 0 1.51-.875 2.615-.864 1.094-2.26 1.5l3.791 6.448v.135zM-10.012-16.3v6.667h3.927q1.791 0 2.687-.99.896-1 .896-2.302 0-1.562-1-2.468-.99-.907-2.865-.907z" style="font-weight:300;-inkscape-font-specification:&quot;Roboto Light&quot;"/><path id="path283" d="M3.852-17.394v15.166H2.571v-15.166Z" style="font-weight:300;-inkscape-font-specification:&quot;Roboto Light&quot;"/><path id="path285" d="M19.175-8.999q0 3.188-1.604 5.084-1.594 1.896-4.292 1.896-2.614 0-4.25-1.855-1.625-1.854-1.667-4.968v-1.782q0-3.177 1.625-5.073 1.625-1.906 4.271-1.906 2.698 0 4.302 1.906 1.615 1.896 1.615 5.073zm-1.27-1.645q0-2.688-1.22-4.26-1.218-1.574-3.427-1.574-2.146 0-3.385 1.573-1.23 1.573-1.23 4.26v1.646q0 2.709 1.24 4.282 1.25 1.573 3.396 1.573 2.208 0 3.417-1.573T17.904-9z" style="font-weight:300;-inkscape-font-specification:&quot;Roboto Light&quot;"/><path id="path287" d="M37.07-6.957h1.282q-.24 2.313-1.656 3.625-1.417 1.313-3.917 1.313-2.573 0-4.125-1.855t-1.583-4.875v-2.01q0-3.073 1.562-4.958 1.573-1.886 4.23-1.886 2.427 0 3.833 1.313 1.416 1.302 1.656 3.635h-1.281q-.23-1.833-1.24-2.844t-2.969-1.01q-2.104 0-3.312 1.583-1.198 1.573-1.198 4.146v1.917q0 2.51 1.156 4.135 1.157 1.625 3.271 1.625 2.01 0 3.031-.969 1.021-.968 1.26-2.885" style="font-weight:300;-inkscape-font-specification:&quot;Roboto Light&quot;"/><path id="path289" d="m39.873-2.228 5.729-15.166h1.219l5.74 15.166h-1.334l-1.562-4.25h-6.896l-1.563 4.25zm3.302-5.344h6.083l-3.041-8.27z" style="font-weight:300;-inkscape-font-specification:&quot;Roboto Light&quot;"/><path id="path291" d="M66.102-17.394v15.166H64.81l-8.708-12.979v12.98H54.81v-15.167h1.292l8.719 12.979v-12.98Z" style="font-weight:300;-inkscape-font-specification:&quot;Roboto Light&quot;"/></g></g></svg></g></svg>